<?xml version="1.0" encoding="utf-8"?>
<!-- Generator: Adobe Illustrator 26.1.0, SVG Export Plug-In . SVG Version: 6.00 Build 0)  -->
<svg version="1.1" id="圖層_1" xmlns="http://www.w3.org/2000/svg" xmlns:xlink="http://www.w3.org/1999/xlink" x="0px" y="0px"
	 viewBox="0 0 135 24" style="enable-background:new 0 0 135 24;" xml:space="preserve">
<style type="text/css">
	.st0{clip-path:url(#SVGID_00000157309146096047537180000009280207468702538676_);}
	.st1{fill:#FFFFFF;}
</style>
<g>
	<defs>
		<rect id="SVGID_1_" x="1" y="2" width="132.5" height="19.9"/>
	</defs>
	<clipPath id="SVGID_00000182518276855850896800000008886851639267998893_">
		<use xlink:href="#SVGID_1_"  style="overflow:visible;"/>
	</clipPath>
	<g style="clip-path:url(#SVGID_00000182518276855850896800000008886851639267998893_);">
		<path class="st1" d="M9.9,3.7c0.3-0.1,0.6-0.1,0.9-0.1c0.5,0,0.8,0.1,0.8,0.2c0,0,0.1,0.1,0.2,0.1c0.1,0,0.1,0,0.2,0
			c0,0,0.1,0.1,0.1,0.1c0,0,0.1,0.1,0.1,0.1c0,0,0.1,0,0.1,0c0.2,0,0.5,0.2,1,0.7c0.1,0.1,0.1,0.1,0.2,0.1c0.1,0,0.1,0,0.1,0.1
			c0,0.1,0.1,0.2,0.2,0.3c0.1,0.1,0.2,0.1,0.3,0.2c0,0,0.1,0,0.1,0c0,0,0,0,0,0c0,0,0,0.1,0.1,0.2s0.1,0.1,0.1,0.2s0.1,0.1,0.2,0.3
			c0.2,0.2,0.2,0.3,0.2,0.4c0,0,0,0.1,0,0.1c0,0,0.1,0.1,0.1,0.1c0.1,0.1,0.1,0.1,0.1,0.2s0.1,0.1,0.2,0.2c0.3,0.2,0.4,1,0.3,2.3
			c0,0.6,0,1.1-0.2,1.7c-0.1,0-0.1,0.1,0,0.1s0,0.1-0.1,0.3c-0.1,0.1-0.1,0.2-0.2,0.3c0,0,0,0.1,0,0.1c0,0,0,0.1-0.1,0.1
			c0,0-0.1,0-0.1,0.1c0,0,0,0.1,0,0.1c0,0.2-0.1,0.4-0.2,0.6c-0.1,0.1-0.1,0.3-0.1,0.4c0,0.1-0.1,0.3-0.1,0.4
			c-0.1,0.1-0.2,0.3-0.1,0.5c0,0.2,0,0.4-0.1,0.7c-0.1,0.3-0.1,0.5-0.1,0.5C14,15.4,14,15.6,14,15.8c0,0.4-0.1,0.7-0.1,0.9
			c0,0.1,0,0.2-0.1,0.3c0,0.1,0,0.1,0,0.1c0.1,0,0.1,0,0,0.1c0,0.1-0.1,0.3-0.1,0.4c0,0.2-0.1,0.3-0.2,0.5c-0.2,0.1-0.3,0.2-0.5,0.3
			c-0.1,0.1-0.3,0.2-0.5,0.2c-0.1,0-0.1,0-0.2,0.1c-0.1,0.1-0.1,0.1-0.2,0.1c-0.1,0-0.1,0-0.2,0.1s-0.2,0.1-0.6,0.2
			c-0.4,0-0.6,0.1-0.7,0.1c0,0,0,0.1-0.1,0.1c0,0-0.1,0-0.1,0c-0.1,0-0.1,0-0.1,0.1s-0.1,0.1-0.3,0.1c-0.2,0-0.4,0-0.6,0.1
			c-0.1,0.1-0.3,0.1-0.4,0.2c0,0-0.1,0-0.1,0C9,20,9,20,9,20c0,0-0.1,0.1-0.1,0.1c-0.1,0-0.1,0-0.2,0c-0.2,0-0.2,0-0.2,0.1
			c0,0.1-0.1,0.1-0.2,0.1c-0.2,0-0.3,0.1-0.5,0.2c-0.1,0.1-0.3,0.1-0.4,0.1c-0.1,0-0.1,0-0.1,0.1c0,0-0.2,0.1-0.4,0.1
			c-0.3,0-0.4,0.1-0.4,0.1c0,0.1-0.1,0.1-0.2,0.1c0,0-0.1,0-0.1,0c0,0-0.1,0-0.1,0.1c0,0.1-0.2,0.1-0.6,0.1c-0.3,0-0.6,0.1-0.6,0.1
			c0,0-0.1,0.1-0.1,0.1c0,0-0.1,0-0.1,0c-0.1,0-0.2,0-0.2-0.1c0-0.1-0.1-0.1-0.2,0c0,0-0.1,0.1-0.2,0.1c-0.1,0-0.1,0-0.2,0
			c-0.1,0-0.2-0.1-0.2-0.1c0,0-0.1-0.1-0.2-0.1c-0.1,0-0.1-0.1-0.2-0.1C3,21.2,3,21.1,3,21c0-0.1-0.1-0.3-0.1-0.4c0,0-0.1,0-0.1-0.1
			c0,0,0-0.1,0-0.1c0-0.1,0-0.1,0-0.1c-0.1,0-0.1,0-0.1-0.1s0-0.1-0.1-0.1c-0.1,0-0.1,0,0-0.1c0-0.1,0-0.2-0.1-0.3
			c-0.1-0.1-0.1-0.1-0.1-0.2c0,0,0-0.1,0.1-0.2C2.5,19.1,2.5,19,2.5,19c0,0-0.1,0-0.1,0.1c-0.1,0.1-0.1,0.2-0.2,0.2
			c0,0-0.1,0.1-0.1,0.1c0,0.1,0,0.1,0,0.1c0,0.1,0,0.1,0,0.1c0,0-0.1,0-0.1-0.1c0-0.1,0-0.3,0-0.4c0-0.2,0.1-0.3,0.1-0.3
			c0,0,0.1-0.1,0.1-0.2c0-0.2-0.1-0.3-0.1-0.5C2,18.2,1.9,18,1.8,17.9c0-0.1-0.1-0.2-0.1-0.3c0-0.1-0.1-0.3-0.1-0.4
			c-0.1-0.1-0.1-0.2-0.2-0.4c-0.1-0.1-0.1-0.2-0.1-0.1c-0.1,0.1-0.2,0.1-0.2,0c0,0,0-0.1,0-0.1c-0.1,0,0-0.1,0.1-0.2
			c0.1-0.1,0.2-0.2,0.2-0.4c0-0.1,0.1-0.2,0.1-0.2c0,0,0.1-0.1,0.1-0.1c0-0.1,0-0.2,0.1-0.2c0.2-0.3,0.3-0.7,0.4-1.1
			c0-0.1,0-0.1,0-0.1S2,14.1,2,14c0.1-0.5,0.2-1,0.2-1.3c0-0.2,0.1-0.3,0.1-0.3c0.1,0,0.1,0.1,0.1,0.4c0,0.2-0.1,0.4-0.1,0.6
			c-0.1,0.2-0.1,0.3-0.1,0.5c0,0.1,0,0.3-0.1,0.4c0,0.1-0.1,0.1,0,0.2c0,0.1,0,0.2,0,0.2c-0.1,0.1-0.1,0.2-0.1,0.3
			c-0.1,0.2-0.1,0.3-0.1,0.3c0,0,0.1,0,0.1,0c0,0,0.1,0,0.1,0C2,15.4,2,15.3,2,15.3c0,0,0-0.1,0-0.1c0,0,0-0.1,0-0.1
			c0,0,0.1-0.1,0-0.1c0,0,0-0.1,0.1-0.1c0,0,0.1-0.1,0.1-0.1c0-0.1,0-0.1,0-0.2c0-0.1,0-0.3,0.1-0.4c0.1-0.2,0.2-0.4,0.2-0.7
			c0-0.2,0.1-0.5,0.1-0.7c0-0.1,0.1-0.3,0.1-0.4c0-0.1,0-0.2,0.1-0.3c0,0,0,0,0,0c0,0,0,0,0,0c0,0,0,0,0,0c0,0,0,0,0,0
			c0,0,0-0.1,0-0.2C3.1,10.9,3.1,9.9,3,9c0-0.6-0.1-0.9-0.2-0.8c0,0,0,0.1,0,0.2c0.1,0.4,0.1,0.8,0,1.2c0,0.4,0,0.7-0.1,1.1
			c-0.1,0-0.1,0.1-0.1,0c0,0,0-0.1,0-0.2c0.1-0.3,0.1-0.7,0.1-1.1c0-0.3,0-0.6,0-1C2.6,8.5,2.6,8.4,2.6,8.4c0-0.2-0.1-0.4-0.1-0.5
			c0-0.2-0.1-0.3-0.2-0.5c-0.1,0-0.1-0.1-0.1-0.2c0,0-0.1-0.1-0.2-0.2C2,6.9,1.9,6.9,1.7,6.8c-0.1,0-0.2-0.1-0.2-0.2
			c0-0.1-0.1-0.2,0-0.3c0-0.1,0.1-0.2,0.3-0.2S2,6.2,2,6.2c0,0,0.1,0,0.1,0.1s0.1,0,0.1,0c0,0,0.1,0,0.1,0c0,0,0.1,0.1,0.1,0.1
			c0,0,0.1,0.1,0.1,0.1s0.1,0,0.1,0c0,0,0.1,0,0.1,0c0,0,0.1,0.1,0.1,0.1C3,6.8,3.1,6.9,3.2,6.9S3.4,7,3.7,7.4s0.5,0.5,0.5,0.6
			c0,0,0,0.1,0,0.1s0.1,0.1,0.1,0.1c0.1,0,0.1,0.1,0.2,0.3c0,0.2,0.1,0.2,0.1,0.2s0.1,0,0.2,0.1C4.9,8.8,5,8.9,4.9,8.9
			c-0.1,0,0,0.1,0,0.2C5,9.3,5.1,9.4,5.1,9.4c0.1,0,0.2,0.3,0.3,0.9c0.1,0.7,0.2,1,0.4,1c0.1,0,0.1,0,0.2-0.1c0-0.1,0.1-0.1,0.2-0.1
			c0.2,0,0.5-0.1,0.7-0.2c0.3-0.1,0.7-0.2,1-0.2c0.2,0,0.4-0.1,0.6-0.1c0.3-0.1,0.6-0.2,1-0.2c0.2,0,0.5-0.1,0.7-0.2
			c0.2-0.1,0.4-0.1,0.6-0.1c0.1,0,0.3-0.1,0.4-0.1c0,0,0.1,0,0.1,0c0,0,0.1,0,0.1,0h0.1c0,0,0-0.2,0.1-0.3c0.1-0.1,0.1-0.3,0.1-0.4
			c0-0.1,0-0.1,0-0.1c0,0,0.1-0.1,0.1-0.1c0.1-0.1,0.2-0.2,0.2-0.3c0-0.1,0-0.1,0-0.2c0,0,0.1-0.1,0.1-0.1c0.1,0,0.1-0.1,0.1-0.1
			c0,0,0-0.3,0.1-0.6c0.1-0.2,0.2-0.5,0.3-0.7c0.1-0.1,0.1-0.2,0.1-0.4c0-0.2,0.1-0.3,0.1-0.3c0,0,0,0,0-0.1c0-0.1,0-0.2-0.1-0.3
			c0-0.1-0.1-0.2-0.2-0.3c-0.2-0.3-0.4-0.5-0.7-0.8c-0.2-0.2-0.4-0.4-0.6-0.5c-0.3-0.1-0.5-0.2-0.8-0.1c-0.3,0-0.5,0-0.8,0.1
			c-0.1,0-0.4,0.1-0.8,0.2C8.8,4.5,8.6,4.6,8.3,4.7C8.2,4.8,8.1,4.8,8,4.8c0,0-0.1,0-0.1,0.1C7.9,5,7.8,5,7.8,5c0,0-0.1,0-0.1,0
			c-0.1,0-0.1,0-0.2,0c-0.1,0-0.1,0.1-0.1,0.1C7.2,5.3,7.2,5.3,7.1,5.3C6.8,5.5,6.6,5.8,6.3,6.1C5.8,6.6,5.6,6.8,5.6,6.8
			c0,0,0-0.1,0-0.3c0-0.2,0.1-0.3,0.2-0.5c0.1-0.1,0.2-0.2,0.2-0.2C6,5.8,6,5.8,6,5.7c0-0.1,0.1-0.1,0.1-0.1c0,0,0,0,0,0
			c0,0,0,0,0,0c0,0,0,0,0,0c0,0,0,0,0,0c0-0.1,0-0.1,0.1-0.1s0.1-0.1,0.1-0.1c0,0,0,0,0,0c0,0,0,0,0,0c0,0,0,0,0,0s0,0,0,0
			C6.7,5,6.8,5,6.8,5c0,0,0.1-0.1,0.2-0.1c0.1,0,0.3-0.1,0.4-0.2c0.1-0.1,0.2-0.2,0.3-0.2C7.8,4.4,8,4.3,8.3,4.2
			c0.3-0.2,0.7-0.3,1-0.4C9.5,3.8,9.7,3.7,9.9,3.7L9.9,3.7z M1.7,16.2c0-0.1-0.1-0.1-0.1-0.1c0,0-0.1,0-0.1,0.1c0,0,0,0,0,0
			c0,0,0,0,0,0c0,0,0,0,0.1,0C1.6,16.3,1.6,16.3,1.7,16.2C1.6,16.2,1.7,16.2,1.7,16.2L1.7,16.2z M1.7,15.9
			C1.7,15.9,1.7,15.9,1.7,15.9C1.7,15.9,1.7,15.9,1.7,15.9C1.7,15.8,1.7,15.8,1.7,15.9C1.7,15.8,1.7,15.8,1.7,15.9
			C1.7,15.8,1.7,15.8,1.7,15.9c0.1-0.1,0.1-0.1,0-0.1c0,0,0,0,0,0c0,0,0,0,0,0c0,0,0,0,0,0c0,0,0,0,0,0C1.6,15.8,1.6,15.8,1.7,15.9
			C1.6,15.8,1.6,15.8,1.7,15.9C1.6,15.8,1.6,15.8,1.7,15.9C1.6,15.8,1.6,15.8,1.7,15.9C1.6,15.9,1.6,15.9,1.7,15.9
			C1.7,15.9,1.7,15.9,1.7,15.9L1.7,15.9z M2.6,11c0-0.1,0.1-0.2,0.1-0.2s0.1,0.1,0,0.2s-0.1,0.2,0,0.2s0,0.1,0,0.2
			c-0.1,0.1-0.1,0.2-0.1,0.2l0-0.1c0-0.1,0-0.2,0-0.2C2.6,11.3,2.6,11.1,2.6,11L2.6,11z M2.6,12.2c0,0,0-0.1,0-0.2s0-0.2,0-0.2
			s0,0.1,0,0.2S2.6,12.2,2.6,12.2L2.6,12.2z M2.7,7.8C2.7,7.8,2.7,7.8,2.7,7.8C2.8,7.8,2.8,7.7,2.7,7.8C2.8,7.7,2.8,7.7,2.7,7.8
			C2.8,7.7,2.8,7.7,2.7,7.8C2.8,7.7,2.8,7.7,2.7,7.8c0.1-0.1,0.1-0.1,0-0.1c0,0,0,0,0,0c0,0,0,0,0,0c0,0,0,0,0,0c0,0,0,0,0,0
			S2.7,7.7,2.7,7.8C2.7,7.7,2.7,7.7,2.7,7.8C2.7,7.7,2.7,7.7,2.7,7.8C2.7,7.7,2.7,7.7,2.7,7.8C2.7,7.7,2.7,7.8,2.7,7.8
			C2.7,7.8,2.7,7.8,2.7,7.8L2.7,7.8z M2.8,8.1C2.8,8.1,2.8,8.1,2.8,8.1C2.9,8.1,2.9,8.1,2.8,8.1C2.9,8,2.9,8,2.9,8c0,0,0,0-0.1,0
			C2.8,8,2.8,8,2.8,8.1C2.7,8.1,2.7,8.1,2.8,8.1L2.8,8.1z M7.7,16.9L7.7,16.9l-0.2,0C7.3,17,7.2,17,7.1,17c0,0,0,0,0,0c0,0,0,0,0,0
			c0,0,0,0,0,0c0,0,0,0,0,0c0,0.1-0.1,0.1-0.2,0.1c-0.1,0-0.1,0-0.2,0c-0.1,0-0.1,0-0.2,0.1c-0.1,0.1-0.2,0.1-0.3,0.1
			c-0.2,0-0.4,0.1-0.5,0.1c-0.2,0.1-0.3,0.2-0.3,0.2c0,0.1,0,0.1,0,0.1c0.1,0,0.1,0,0.1,0c0,0,0.1-0.1,0.2-0.1
			c0.1-0.1,0.2-0.1,0.3-0.1c0,0,0.1,0,0.1,0c0,0,0,0,0.1-0.1c0-0.1,0.2-0.1,0.4-0.1c0.2,0,0.4-0.1,0.6-0.2c0.1-0.1,0.3-0.2,0.5-0.2
			C7.6,17,7.7,17,7.7,16.9L7.7,16.9z M5.8,17.9C5.8,17.9,5.8,17.9,5.8,17.9c-0.1-0.1-0.2-0.1-0.2,0c-0.1,0-0.1,0-0.1,0.1
			c-0.1,0.1-0.1,0.2,0,0.2l0.1,0c0.1,0,0.1,0,0.1,0c0,0.1,0.1,0,0.1,0C5.8,18,5.8,18,5.8,17.9L5.8,17.9z M9.8,12.5
			c-0.1-0.1-0.2-0.1-0.4-0.1c-0.1,0-0.3,0-0.4,0c-0.2,0-0.5,0.1-0.9,0.1c-0.4,0-0.8,0.1-1.1,0.4c-0.1,0-0.2,0.1-0.4,0.2
			c-0.4,0.1-0.7,0.3-0.9,0.7c-0.1,0.4-0.2,0.8-0.2,1.2c-0.1,0.4-0.1,0.9-0.1,1.3c0,0.3,0,0.6,0,0.9c0,0.1,0,0.1,0,0.2
			c0,0,0.1,0,0.2,0c0.2,0,0.3,0,0.3-0.1c0-0.1,0.3-0.2,0.9-0.3c0.1,0,0.2-0.1,0.2-0.1c0.1-0.1,0.2-0.1,0.3-0.1
			c0.1,0,0.3-0.1,0.4-0.2c0.1-0.1,0.2-0.2,0.4-0.2c0.5-0.1,0.7-0.2,0.7-0.3c0-0.1,0-0.1,0.1-0.1c0.1,0,0.1,0,0.2,0
			c0,0,0.1-0.1,0.1-0.1c0.1-0.1,0.2-0.2,0.2-0.1c0.1,0,0.2,0,0.3-0.2c0.2-0.2,0.4-0.3,0.6-0.4c0.2-0.1,0.4-0.2,0.5-0.4
			C11,14.3,11,14,11,13.7c0-0.3,0-0.7,0.1-1c0-0.2,0.1-0.3,0-0.3c-0.1,0-0.3,0-0.4,0c-0.2,0-0.3,0.1-0.5,0c0,0-0.1,0-0.1,0
			c0,0-0.1,0-0.1,0.1c0,0,0,0,0,0c0,0,0,0-0.1,0C9.9,12.6,9.8,12.6,9.8,12.5C9.8,12.6,9.8,12.6,9.8,12.5L9.8,12.5z M6.4,17.7
			c0-0.1-0.1-0.1-0.3,0.1c-0.1,0.1-0.1,0.1,0,0.1C6.3,17.9,6.4,17.8,6.4,17.7L6.4,17.7z M8.6,16.5c0-0.1,0-0.1-0.1-0.1
			c0,0-0.1,0-0.1,0c0,0-0.1,0.1-0.1,0.1c0,0-0.1,0.1-0.1,0.1c0,0-0.1,0-0.1,0.1c-0.1,0-0.1,0-0.2,0.1c-0.1,0.1-0.1,0.1-0.1,0.2
			l0.1,0c0.1,0,0.2-0.1,0.2-0.1c0.1-0.1,0.2-0.1,0.3-0.2C8.5,16.5,8.5,16.5,8.6,16.5C8.6,16.5,8.6,16.5,8.6,16.5L8.6,16.5z
			 M10.1,15.7c0.1-0.1,0.3-0.1,0.4-0.2c0.2-0.2,0.2-0.2,0.2-0.2c-0.2,0-0.4,0.1-0.6,0.3c-0.1,0.1-0.3,0.2-0.4,0.3
			c-0.1,0.1-0.3,0.1-0.4,0.2c0,0-0.1,0-0.2,0.1c-0.1,0.1-0.2,0.2-0.2,0.3c0,0,0,0.1,0,0.1c0.2,0,0.4-0.1,0.5-0.3
			c0.1-0.1,0.3-0.2,0.4-0.2C10,15.8,10,15.8,10.1,15.7C10,15.7,10.1,15.7,10.1,15.7L10.1,15.7z M10.9,15.1
			C10.9,15.2,10.9,15.2,10.9,15.1C11,15,11,15,11,15c0,0,0,0-0.1,0C10.9,15,10.9,15,10.9,15.1C10.9,15.1,10.9,15.1,10.9,15.1
			L10.9,15.1z M11.5,12.5c-0.1-0.1-0.2,0-0.2,0.2c0,0.1,0,0.3-0.1,0.6c0,0.1,0,0.3-0.1,0.4c0,0,0,0,0,0.1c0,0,0,0,0,0.1
			c0,0.1,0,0.1,0,0.1c0.1,0,0.2-0.3,0.2-0.9c0-0.1,0-0.3,0.1-0.4C11.6,12.5,11.6,12.5,11.5,12.5L11.5,12.5z M11.2,14.3
			c0,0.1,0.1,0.1,0.1,0c0,0,0-0.1,0-0.2c0-0.1-0.1-0.1-0.1,0C11.2,14.1,11.2,14.2,11.2,14.3C11.2,14.2,11.2,14.2,11.2,14.3
			L11.2,14.3z M12.3,9c0.1-0.2,0.2-0.4,0.2-0.6c0-0.1,0-0.2,0-0.2c0,0-0.1,0-0.1,0.1c-0.2,0.2-0.3,0.5-0.4,0.8c0,0.1,0,0.1-0.1,0.2
			c-0.1,0.1-0.1,0.1-0.1,0.2c0,0.1-0.1,0.2-0.1,0.3c0,0.1,0,0.1,0,0.1s0.1-0.1,0.2-0.3S12.2,9.3,12.3,9L12.3,9z M12.8,7.8
			c0.1-0.2,0.1-0.3,0-0.3c0,0,0,0-0.1,0.1c0,0.1-0.1,0.2-0.1,0.2c0,0.1,0,0.2,0,0.2c0,0.1,0,0.1,0.1,0C12.7,8,12.7,7.9,12.8,7.8
			L12.8,7.8z M12.9,7.1c0.1,0,0.1,0,0.1-0.1c0-0.1,0-0.1,0-0.1c0,0-0.1,0-0.1,0.1C12.8,7.1,12.9,7.1,12.9,7.1L12.9,7.1z M13.2,6.6
			c0-0.1,0-0.1-0.1-0.1c0,0,0,0-0.1,0.1c0,0.1,0,0.2,0,0.2c0,0,0,0,0,0c0,0,0,0,0,0c0,0,0,0,0,0c0,0,0,0,0,0c0,0,0-0.1,0.1-0.1
			C13.2,6.7,13.3,6.6,13.2,6.6L13.2,6.6z M13.3,6.2C13.3,6.2,13.3,6.2,13.3,6.2c0.1-0.1,0.1-0.1,0-0.1S13.2,6.1,13.3,6.2
			C13.2,6.2,13.3,6.2,13.3,6.2L13.3,6.2z"/>
		<path class="st1" d="M22.4,11.7c0.2,0,0.3,0,0.3-0.1c0-0.1,0.1-0.1,0.2-0.1c0.1,0,0.3,0.1,0.4,0c0.2,0,0.3,0,0.3,0.1
			c0,0,0,0.1,0.1,0.1s0.1,0,0.1,0.1S24,12,24,12c0.1,0,0.2,0.1,0.3,0.2s0.2,0.2,0.2,0.2c0.1,0,0.1,0,0.1,0.1c0,0,0,0.1,0,0.1
			c0,0,0.1,0.1,0.1,0.1c0,0,0.1,0,0.1,0.1c0,0,0,0.1,0,0.1c0,0,0,0.1,0,0.1c0,0,0,0.1,0,0.1c0,0,0.1,0.1,0.1,0.3
			c0,0.1,0,0.2,0.1,0.3c0,0,0.1,0.1,0.1,0.3c0,0.1,0,0.1-0.1,0.2c0,0.1-0.1,0.1-0.2,0.1c-0.1,0-0.2,0.1-0.3,0.2h-0.1c0,0,0,0-0.1,0
			c-0.1,0.1-0.1,0.1-0.2,0c0,0-0.1,0-0.3,0.1c-0.1,0-0.1,0.1-0.2,0.1c0,0.1-0.1,0.1,0,0.2c0,0.2,0,0.3,0,0.3c0,0,0,0.1,0,0.3
			c0,0.1,0,0.2-0.1,0.3c-0.1,0.1-0.1,0.2-0.2,0.4c-0.1,0.2-0.1,0.3-0.2,0.3c-0.1,0-0.1,0-0.1,0.1c0,0,0,0,0,0c0,0,0,0,0,0
			c0,0,0,0,0,0c0,0,0,0,0,0c0.2,0,0.3,0.1,0.4,0.2c0.2,0.2,0.3,0.3,0.3,0.4c0,0.1,0.1,0.2,0.2,0.3c0.1,0,0.1,0.1,0.2,0.1
			c0,0.1,0,0.2,0,0.3c0,0.2,0,0.3-0.1,0.3c-0.1,0-0.1,0-0.1,0.1c0,0-0.1,0.1-0.2,0.1c-0.1,0-0.2,0.1-0.2,0.2c0,0.1-0.1,0.1-0.2,0.1
			c-0.1,0-0.2,0-0.2,0.1c0,0,0,0.1-0.1,0.1c0,0-0.1,0-0.1,0c-0.3,0-0.6,0.1-0.9,0.3c-0.1,0.1-0.2,0.1-0.3,0.2
			c-0.1,0-0.2,0.1-0.2,0.1c-0.1,0.1-0.2,0.1-0.3,0.1c-0.1,0-0.1,0-0.1,0.1s0,0.1-0.1,0.1c-0.1,0-0.2,0.1-0.3,0.1
			c-0.1,0.1-0.2,0.2-0.3,0.2c-0.1,0-0.2,0.1-0.3,0c0,0-0.1,0-0.1,0.1c0,0.1-0.1,0.1-0.1,0.1c0,0-0.1,0,0,0c0,0,0,0.1,0,0.1
			c0,0-0.1,0.1-0.2,0.1c-0.1,0-0.2,0.1-0.3,0.1c0,0-0.1,0.1-0.2,0.2c-0.1,0.1-0.1,0.2-0.2,0.3c0,0.1-0.1,0.2-0.1,0.2c0,0,0,0,0,0
			c0,0,0,0,0,0c0,0,0,0,0,0s0,0,0,0c0,0.1,0,0.1,0,0.1c0,0-0.1,0.1-0.1,0.1c-0.1,0.1-0.2,0.1-0.3,0.1c-0.1,0-0.1,0-0.2-0.1
			c0,0,0,0,0,0c0,0,0,0-0.1,0c-0.1,0-0.2,0-0.2-0.1c0,0-0.1-0.1-0.2-0.1s-0.1,0-0.1-0.1c0-0.1,0-0.1-0.1-0.1s-0.1-0.1-0.1-0.2
			c0-0.1,0-0.2-0.1-0.2c-0.1,0-0.1-0.1-0.1-0.2c-0.1-0.4-0.1-0.8-0.1-1.2c0-0.1,0-0.2,0-0.3c0-0.1-0.1-0.2-0.2-0.3
			c-0.2-0.2-0.1-0.3,0.2-0.3c0.2,0,0.3-0.1,0.5-0.2c0.1-0.1,0.2-0.2,0.3-0.2c0.2,0,0.1,0.1-0.1,0.2c-0.1,0-0.1,0.1-0.2,0.1
			c-0.1,0-0.2,0.1-0.2,0.2c0,0.1,0,0.1,0,0.1c0.1,0,0.1-0.1,0.2-0.1c0.1-0.1,0.2-0.1,0.4-0.2c0.1,0,0.1-0.1,0.1-0.1
			c0-0.1,0.1-0.1,0.2-0.2c0.2-0.1,0.2-0.1,0.3-0.2c0,0,0-0.1,0-0.1c0,0,0,0,0.1,0c0.1,0,0.1-0.1,0.2-0.2c0-0.1,0-0.1,0.1-0.1
			c0,0,0.1-0.1,0.2-0.1c0.1,0,0.2,0,0.2-0.1c0-0.1,0.1-0.2,0.2-0.3c0.2-0.1,0.2-0.2,0.2-0.3c0-0.1,0.1-0.1,0.2-0.2
			c0,0,0.1,0,0.1-0.1c0,0,0-0.1,0.1-0.1c0-0.1,0.1-0.2,0.2-0.3c0.1-0.1,0.2-0.2,0.2-0.2c0,0,0.1-0.1,0.2-0.2s0.2-0.2,0.2-0.2
			c0,0,0,0,0-0.1c0,0,0,0,0-0.1c0-0.1,0.1-0.1,0.1-0.2c0-0.1,0-0.2-0.1-0.2c-0.1,0-0.1,0-0.1,0.1c0,0,0,0.1,0,0.1c0,0,0,0.1-0.1,0.1
			c-0.1,0.1-0.1,0.2-0.2,0.2c0,0.1-0.1,0.1-0.1,0.1s0-0.1,0-0.2c0-0.1,0.1-0.2,0.1-0.3l0-0.2l0,0c-0.2,0.1-0.5,0.1-0.7,0.1
			c-0.4,0-0.7,0-0.7-0.1c0-0.1-0.1-0.1-0.2-0.1c-0.1,0-0.1-0.1-0.1-0.1c0-0.1-0.1-0.1-0.2-0.1c-0.2-0.1-0.4-0.2-0.5-0.4
			c-0.2-0.2-0.3-0.4-0.5-0.7c-0.1-0.2-0.2-0.4-0.4-0.5c-0.1-0.1-0.2-0.3-0.3-0.5c0-0.1,0-0.2,0-0.2c0.1,0,0.1,0,0.2,0
			c0.1,0,0.1,0,0.2,0c0,0,0.1,0.1,0.1,0.1c0,0.1,0.1,0.1,0.1,0.1c0.1,0,0.2,0.1,0.2,0.1c0.2,0.1,0.4,0.1,0.6,0.1
			c0.2,0,0.5-0.1,0.7-0.1c0.1,0,0.3-0.1,0.4-0.1c0.1,0,0.2,0,0.2-0.1c0,0,0.1-0.1,0.4-0.2c0.2,0,0.3-0.1,0.5-0.2c0,0,0.1,0,0.1-0.1
			c0,0,0.1,0,0.1,0c0.1,0,0.2,0,0.2-0.1c0,0,0.1-0.1,0.2-0.1c0.1,0,0.1,0,0.2-0.1c0,0,0.1-0.1,0.1-0.1
			C22.1,11.7,22.2,11.7,22.4,11.7z M19.4,17.4c0.1,0,0.1-0.1,0.2,0c0,0,0,0.1-0.1,0.2c-0.1,0.1-0.2,0.2-0.3,0.3S18.9,18,18.9,18
			c0,0,0,0,0,0c0,0,0,0,0,0l0,0.1c0,0.1-0.1,0.1-0.1,0.1s0-0.1,0.2-0.3c0.1-0.1,0.2-0.2,0.3-0.3c0,0,0,0,0,0c0,0,0,0,0,0
			C19.3,17.5,19.3,17.4,19.4,17.4L19.4,17.4z M27.1,2.1C27.2,2,27.3,2,27.4,2c0.2,0,0.3,0.1,0.3,0.3c0,0.1,0,0.1,0.2,0.2
			c0.2,0.3,0.2,0.5,0.2,0.8c0.1,0.9,0,1.7,0,2.6l0,0.4h0.3c0.2,0,0.4,0,0.4,0.1c0.1,0.1,0.1,0.1,0.2,0.1c0.1,0,0.1,0,0.2,0.1
			c0.1,0.1,0.2,0.1,0.3,0.2c0.1,0.1,0.2,0.2,0.3,0.3c0.1,0.1,0.1,0.2,0.2,0.2c0,0,0.1,0.1,0.2,0.2c0.1,0.1,0.2,0.2,0.2,0.1
			c0-0.1,0.1,0,0.3,0.3c0.1,0.1,0.1,0.2,0.2,0.3c0,0.1,0.1,0.1,0.1,0.1c0,0,0.1,0.1,0.2,0.2c0.1,0.1,0.1,0.3,0,0.5
			c0,0.1-0.1,0.2-0.1,0.2c0,0,0,0,0,0c0,0,0,0,0,0c0,0,0,0,0,0c0,0,0,0,0,0c-0.1,0-0.1,0-0.1,0.1s-0.1,0.1-0.2,0.1c0,0-0.1,0-0.1,0
			c0,0-0.1,0.1-0.1,0.1c0,0.1-0.3,0.2-0.8,0.2c-0.1,0-0.2,0-0.4,0.1c-0.1,0-0.1,0-0.2,0c-0.1,0-0.1,0-0.2,0.1c0,0-0.1,0.1-0.1,0.1
			c0,0-0.1,0-0.1,0c-0.1,0-0.2,0-0.2,0.1c0,0,0,0-0.1,0c0,0-0.1,0-0.1,0c0,0-0.1,0-0.1,0c0,0-0.1,0-0.1,0.1c0,0.1-0.1,0.1-0.2,0.1
			c-0.1,0-0.1,0.3-0.1,0.8s0,0.8,0.1,0.8c0,0,0,0,0,0.1c0,0,0,0,0,0c0,0,0,0,0,0c0.1,0,0.1,0.2,0,0.7c0,0.1,0,0.3-0.1,0.4
			c-0.1,0.3-0.1,0.7,0,1c0,0.3,0,0.7,0.1,1c0,0.1,0.1,0.1,0.1,0.2c0.1,0.5,0.2,0.9,0.3,1.3c0,0.1,0.1,0.2,0.1,0.3
			c0,0.1,0.1,0.2,0.2,0.3c0.2,0.1,0.2,0.2,0.3,0.2c0.1,0,0.1,0,0.1,0.1c0,0.1,0,0.1,0.1,0.1c0,0,0.1,0,0.1,0c0,0,0,0,0.1,0.1
			c0.1,0.1,0.2,0.1,0.3,0.2c0.1,0.1,0.2,0.1,0.3,0.1c0.1,0,0.1,0,0.1,0.1s0,0.1,0.1,0.1c0.4,0,1,0.1,1.5,0.1c0.1,0,0.2,0,0.2,0.1
			c0.1,0,0.2,0.1,0.3,0c0,0,0.1,0,0.1,0c0,0,0,0,0.1,0c0,0,0,0,0-0.1c0,0,0-0.1,0-0.1c0-0.1,0.1-0.2,0.2-0.2c0,0,0.1,0,0.1,0
			c0,0,0.1,0,0.1-0.1c0.1-0.1,0.1-0.3,0.2-0.4c0-0.2,0.1-0.4,0.2-0.6c0.1-0.4,0.2-0.9,0.2-1.3c0-0.2,0.1-0.3,0.1-0.4
			c0,0,0,0,0.1-0.1c0,0,0,0,0-0.1c0-0.5,0.1-1,0.3-1.4c0.1-0.4,0.2-0.7,0.3-1.1c0.1-0.3,0.1-0.5,0.2-0.5c0,0,0.1-0.1,0.1-0.3
			c0-0.2,0-0.4,0.1-0.6c0.1-0.2,0.1-0.4,0.1-0.7c0-0.2,0-0.4,0.1-0.4c0,0,0,0,0-0.1c0-0.1,0-0.1-0.1-0.1c-0.1,0-0.1,0.1-0.1,0.3
			c0,0.2,0,0.2-0.1,0.2s-0.1,0.1-0.1,0.3s-0.1,0.3-0.2,0.4c-0.1,0-0.1,0-0.1-0.1v-0.2c0-0.2,0-0.3,0.1-0.5c0,0,0-0.1,0-0.1
			c0,0,0-0.1,0-0.1c0-0.1,0-0.1,0-0.3c0.1-0.1,0.1-0.2,0.1-0.3c0-0.2,0.2-0.4,0.6-0.4c0.5,0,0.8,0.1,1,0.3c0,0.1,0.1,0.1,0.1,0.1
			c0,0,0.1,0.1,0.2,0.1c0.1,0,0.2,0.1,0.2,0.1c0,0,0,0.1,0,0.1s0.1,0.1,0.1,0.1c0.1,0.1,0.1,0.2,0.1,0.4c0,0.2-0.1,0.5-0.1,0.7
			c-0.1,0.3-0.1,0.6-0.1,0.9c0,0.2-0.1,0.5-0.2,0.7c-0.1,0.4-0.2,0.8-0.1,1.3c0,0.1,0,0.3,0,0.4c-0.1,0.2-0.1,0.4,0,0.4
			c0.1,0,0.1,0,0.1,0.1c-0.1,0.1-0.1,0.3-0.1,0.4c0,0.1,0,0.3,0.1,0.4c0,0.1,0.1,0.3,0.1,0.4c0,0.2,0,0.3-0.1,0.3
			c-0.1,0.1-0.1,0.1-0.1,0.2c0,0,0,0,0,0.1c0,0,0,0,0.1,0c0.1,0,0.1,0.1,0.2,0.2c0,0.1,0,0.3,0,0.4c0,0.1,0,0.1,0,0.2
			c0,0.1,0.1,0.1,0.1,0.2c0.1,0.1,0.2,0.2,0.2,0.4c0,0.1,0,0.2,0.1,0.2c0,0,0.1,0.1,0.1,0.2s0,0.2,0.1,0.2c0,0,0,0.1,0,0.1
			c0,0.1,0,0.1,0.1,0.1c0,0,0.1,0,0.1,0.1c0,0,0,0.1,0,0.1c0,0.1,0,0.2,0.1,0.3c0,0.1,0.1,0.2,0.2,0.2c0.1,0,0.1,0.1,0.1,0.2v0.1
			c0,0,0,0,0,0c0,0,0,0,0,0c0,0,0,0,0,0.1c0,0,0,0.1,0,0.1c0,0,0,0.1,0.1,0.1c0.1,0.1,0.1,0.2,0.1,0.3c0,0.1,0,0.2-0.1,0.2
			c0,0,0,0,0,0.1c0,0,0,0,0,0.1c0,0.1,0,0.2-0.2,0.4c-0.1,0.1-0.3,0.2-0.5,0.2c0,0-0.1,0-0.1,0.1c0,0,0,0,0,0c0,0,0,0,0,0
			c0,0,0,0,0,0c0,0,0,0,0,0c0,0-0.1-0.1-0.1-0.1c0,0-0.1,0-0.1,0c0,0,0,0,0,0.1c0,0.1,0,0.1-0.1,0c-0.7-0.2-1.5-0.3-2.2-0.2
			c-1.1,0-1.6-0.1-1.6-0.2c0-0.1-0.1-0.1-0.3-0.1c-0.2,0-0.3,0-0.4-0.1c0,0-0.1,0-0.1,0c0,0-0.2,0-0.3-0.2C31,21.1,30.9,21,30.8,21
			c0,0-0.1-0.1-0.3-0.2c-0.1-0.2-0.3-0.2-0.3-0.3c-0.1,0-0.2-0.1-0.3-0.2c-0.1-0.1-0.2-0.1-0.3-0.2c-0.1,0-0.1-0.1-0.2-0.2
			c-0.1-0.1-0.1-0.2-0.2-0.2s-0.2-0.1-0.4-0.4c-0.2-0.3-0.4-0.5-0.7-0.7c-0.3-0.3-0.4-0.4-0.3-0.5c0-0.1,0-0.1-0.1-0.2
			c-0.1-0.1-0.1-0.2-0.1-0.3c0,0,0-0.1,0-0.1s-0.1-0.1-0.1-0.1c0,0-0.1-0.1-0.1-0.1c0,0,0-0.1,0-0.2c0-0.2-0.1-0.3-0.2-0.4
			c-0.1-0.1-0.2-0.2-0.2-0.3c0,0,0-0.1-0.1-0.2c0,0-0.1-0.1-0.1-0.1c0,0,0-0.1,0-0.1c0,0,0-0.1,0-0.1c0,0,0-0.1-0.1-0.1l-0.1-0.1
			c0,0,0,0,0-0.1c0,0,0-0.1,0-0.2c0-0.1,0-0.1,0-0.2c-0.2-0.8-0.2-1.6-0.2-2.4c0-0.4,0-0.8,0.1-1.1c0.1,0,0.1-0.1,0-0.2
			c0-0.1-0.1-0.1,0-0.2c0.1,0,0.1-0.2,0.1-0.4v-0.4c0,0-0.1,0-0.1,0.1C26.3,11,26.3,11,26.3,11c0,0-0.1-0.1-0.3,0
			c-0.1,0-0.2,0-0.3,0.1c0,0-0.1,0-0.4,0c-0.2-0.1-0.4-0.1-0.4,0c0,0-0.1,0-0.2,0c-0.1-0.1-0.2,0-0.2,0c0,0-0.1,0-0.1,0
			c0,0-0.1,0-0.1,0c-0.1,0-0.2,0-0.2-0.1c0,0-0.1-0.1-0.2,0c-0.1,0-0.2,0-0.2,0c0,0-0.2-0.1-0.4-0.1c-0.1,0-0.3-0.1-0.4-0.1
			c0,0-0.1-0.1-0.1-0.1c0,0-0.1,0-0.1,0c-0.1,0-0.3-0.1-0.4-0.2c-0.1-0.1-0.2-0.1-0.3-0.2c0,0-0.1,0-0.1,0c0,0,0,0-0.1,0
			c0,0,0,0-0.1-0.1c0,0-0.1,0-0.1,0c-0.1,0-0.3-0.1-0.6-0.4c0,0-0.1-0.1-0.2-0.2c-0.2-0.3-0.4-0.6-0.6-0.9c0-0.1,0-0.1-0.1-0.1
			C20,8.5,20,8.4,20,8.3c0-0.1,0-0.2,0-0.2c0-0.1,0-0.2,0-0.3c0-0.1,0-0.2-0.1-0.2c0-0.1-0.1-0.1-0.1-0.2c0,0,0,0,0,0c0,0,0,0-0.1,0
			c-0.1,0-0.1,0-0.3-0.2c-0.1-0.1-0.2-0.3-0.2-0.5c0-0.1,0-0.2,0.1-0.2c0,0,0.1,0,0.2,0c0,0,0.1,0,0.1,0c0,0,0.1,0,0.1-0.1
			c0.1-0.1,0.2-0.1,0.4,0c0.2,0.1,0.3,0.2,0.3,0.3c0,0,0.1,0.1,0.2,0.1c0.1,0,0.2,0,0.2,0.1c0,0.1,0,0.1,0.1,0.1
			c0.1,0,0.2,0.1,0.2,0.1c0.1,0.1,0.1,0.1,0.2,0.1c0,0,0,0,0,0c0,0,0,0,0,0c0,0,0,0,0,0c0,0,0,0,0,0c0,0.1,0.1,0.1,0.3,0.1
			c1.1,0,1.7,0,1.7-0.1c0,0,0.1-0.1,0.4-0.1C24.5,7.1,25,7,25.6,6.8c0.2-0.1,0.4-0.1,0.6-0.2c0.1,0,0.2,0,0.3-0.1c0,0,0,0,0.1-0.1
			c0,0,0-0.1,0-0.1c0-0.1,0-0.2,0.1-0.2l0,0.1v0.1c0,0.1,0,0.2,0.1,0.2c0,0,0.1,0,0.2-0.1C27,6.5,27,6.4,27,6.3c0-0.3,0-0.6,0.1-0.8
			c0-0.1,0-0.3,0.1-0.7c0-0.4,0.1-0.7,0.1-1.1c0.1-0.8,0.1-1.2-0.1-1.3c0,0-0.1,0-0.1-0.1c0,0,0-0.1,0-0.1
			C27.1,2.2,27.1,2.2,27.1,2.1C27.1,2.1,27.1,2.1,27.1,2.1L27.1,2.1z M20,16.9c0,0,0.1-0.1,0.1-0.1c0.1,0.1,0,0.2-0.2,0.4
			c-0.1,0.1-0.2,0.1-0.2,0c0,0,0-0.1,0-0.1c0,0,0.1,0,0.1,0c0,0,0.1,0,0.1-0.1C20,17,20,16.9,20,16.9L20,16.9z M20.4,16.5
			c0-0.1,0.1-0.1,0.1-0.1C20.6,16.4,20.5,16.5,20.4,16.5C20.5,16.5,20.5,16.6,20.4,16.5C20.4,16.6,20.4,16.5,20.4,16.5L20.4,16.5z
			 M20.7,16c0.1-0.1,0.1-0.2,0.2-0.2c0,0,0.1,0,0.1,0c0,0,0,0,0,0c0,0,0,0,0,0c-0.1,0.1-0.1,0.2-0.2,0.2l-0.1,0.2
			C20.7,16.2,20.7,16.1,20.7,16L20.7,16z M25.5,7.2c0-0.1-0.1-0.1-0.3-0.1c-0.1,0-0.3,0-0.4,0.1c-0.2,0.1-0.4,0.1-0.6,0.1
			c-0.3,0-0.5,0.1-0.5,0.1c0,0-0.1,0.1-0.4,0.1c-0.1,0-0.2,0-0.3,0.1c0,0,0,0,0,0.1c0,0,0,0,0,0.1c0,0.1,0.1,0.1,0.3,0.1
			c0.1,0,0.2,0,0.3,0.1c0,0,0.1,0,0.2,0c0.1-0.1,0.2-0.1,0.3-0.1c0.1,0,0.2,0,0.3-0.1c0.1,0,0.1-0.1,0-0.1c-0.1,0-0.1,0-0.1-0.1
			c0-0.1,0.2-0.1,0.5-0.1l0.2,0l0.2-0.1c0.1,0,0.2,0,0.3,0C25.5,7.3,25.5,7.3,25.5,7.2L25.5,7.2z M24.6,7.7
			C24.6,7.7,24.6,7.7,24.6,7.7C24.6,7.7,24.6,7.7,24.6,7.7C24.6,7.7,24.6,7.7,24.6,7.7C24.6,7.7,24.6,7.7,24.6,7.7
			c0.1-0.1,0.1-0.1,0-0.1S24.6,7.6,24.6,7.7C24.5,7.7,24.5,7.7,24.6,7.7L24.6,7.7z M26,12.9c0,0-0.1,0-0.1-0.1s0-0.1,0.1-0.1
			c0,0,0.1,0,0.1,0.1S26,12.9,26,12.9L26,12.9z M26,14.1c0,0-0.1,0-0.1-0.1c0-0.1,0-0.1,0.1-0.1c0,0,0.1,0,0.1,0.1
			C26.1,14,26,14.1,26,14.1L26,14.1z M26.1,11C26.1,10.9,26.1,10.9,26.1,11c0.1,0.1,0,0.1,0,0.2l-0.1,0.2v-0.2
			C26,11.1,26.1,11.1,26.1,11L26.1,11z M26.8,5.5c0-0.1,0-0.2,0-0.2S26.9,5.4,26.8,5.5c0,0.2,0,0.3,0,0.4c0,0,0,0.1,0,0.1
			c-0.1,0-0.1,0-0.1-0.1c0-0.1,0-0.1,0.1-0.1c0,0,0,0,0,0c0,0,0,0,0,0s0,0,0,0c0,0,0,0,0,0L26.8,5.5z M26.9,4.8
			C26.9,4.7,26.9,4.7,26.9,4.8C27,4.9,27,4.9,27,5c0,0.1,0,0.2-0.1,0.2c0,0,0-0.1,0-0.2C26.8,4.9,26.8,4.9,26.9,4.8L26.9,4.8z
			 M26.9,2.4c0-0.1,0-0.1,0-0.1c0,0,0.1,0,0.2,0.1c0.1,0,0.1,0.3,0.1,0.7c0,0.4,0,0.6-0.1,0.6c-0.1,0-0.1-0.1-0.1-0.4V3.2
			C27,2.9,27,2.7,26.9,2.4L26.9,2.4z M27,4c0-0.1,0-0.2,0.1-0.2c0,0,0,0,0,0.1c0,0,0,0.1,0,0.1c0,0,0,0.1,0,0.1C27,4.2,27,4.1,27,4
			C27,4.1,27,4.1,27,4L27,4z M27,4.4L27,4.4C27,4.4,27,4.5,27,4.4C27,4.5,27,4.5,27,4.4L27,4.4z M29.5,3.5c0.1-0.1,0.3-0.1,0.4-0.1
			c0.1,0,0.2,0,0.3,0.1c0.1,0,0.2,0.1,0.2,0.2c0.2,0.2,0.5,0.3,0.7,0.3c0.3,0,0.5,0.1,0.7,0.1C31.9,4,32,4,32.2,4
			c0.2,0,0.4,0.1,0.5,0.2C32.9,4.3,33,4.4,33,4.4c0,0,0,0,0,0c0,0,0,0,0,0c0,0,0,0,0,0c0,0,0,0,0,0c0,0,0,0,0.1,0c0,0,0,0,0,0.1
			c0,0.2,0,0.4,0.1,0.4c0.1,0,0.1,0.1,0.1,0.2c0,0.1,0,0.2,0.1,0.2c0,0,0,0.1,0,0.2c0,0.1-0.1,0.2-0.1,0.2c-0.1,0-0.1,0.1-0.1,0.1
			c0,0.1,0,0.1-0.2,0.2h-0.2c-0.2,0-0.5,0-0.7-0.2c-0.1,0-0.1,0-0.1,0c0,0-0.1,0-0.2-0.1c0-0.1-0.1-0.1-0.2-0.1
			c-0.1,0-0.1,0-0.2-0.1c-0.1,0-0.2,0-0.2-0.1S31.1,5.3,31,5.3s-0.1-0.1-0.2-0.2c0,0-0.1-0.1-0.1-0.1c0,0-0.1,0-0.1,0
			c-0.1,0-0.2-0.1-0.2-0.2c-0.1-0.2-0.2-0.4-0.4-0.6c-0.1-0.1-0.2-0.1-0.2,0c-0.1,0.1-0.1,0.1-0.1,0c0-0.1,0-0.1-0.1,0s0,0,0,0
			c0,0,0,0,0-0.1c0,0,0,0,0,0c0,0,0,0,0,0c0,0,0,0,0,0c0,0,0,0,0,0C29.3,3.9,29.3,3.8,29.5,3.5C29.5,3.6,29.5,3.6,29.5,3.5L29.5,3.5
			z M33.8,11.8L33.8,11.8c0.1,0.2,0.1,0.3,0,0.4c0,0.1-0.1,0.2,0,0.3c0,0.1,0,0.1,0,0.1c-0.1,0-0.2-0.2,0-0.5
			C33.8,12,33.8,11.9,33.8,11.8L33.8,11.8z"/>
		<path class="st1" d="M46.2,2.4c0.1,0,0.2,0,0.3-0.1c0.1-0.1,0.2-0.1,0.4-0.1c0.2,0,0.3,0,0.4,0.1c0.2,0.1,0.4,0.1,0.6,0.2
			c0.2,0,0.4,0.1,0.6,0.3c0.2,0.1,0.4,0.3,0.5,0.5c0.2,0.2,0.3,0.3,0.3,0.4c0,0.1,0,0.1,0.1,0.1c0.1,0,0.2,0.1,0.3,0.3
			c0.1,0.2,0.2,0.3,0.3,0.5C50,4.7,50,4.7,50.1,4.7c0,0,0.1,0,0.1,0.1s0,0.1,0.1,0.1c0,0,0,0,0,0c0,0,0,0,0,0c0,0,0,0,0,0
			c0,0,0,0,0,0c0,0,0,0.1,0,0.1c0,0,0,0,0,0.1c0,0,0,0,0,0.1c0,0,0,0,0,0.1c0,0,0,0,0,0s0,0,0,0c0,0,0,0,0,0c0,0,0,0,0,0
			c0.1,0,0.1,0,0.1,0.1c0,0.1,0.1,0.1,0.4,0.1c0.2,0,0.3-0.1,0.5-0.1c0.1-0.1,0.2-0.1,0.4-0.1c0.3,0,0.5,0.1,0.8,0.3
			c0.3,0.2,0.5,0.3,0.5,0.4c0,0,0,0.1,0,0.1c0,0,0.1,0,0.1,0.1c0,0,0.1,0,0.1,0.1c0,0,0,0.1,0,0.1c0,0.1,0.1,0.1,0.1,0.1
			c0.1,0,0.1,0.1,0.2,0.2S53.6,7,53.7,7c0,0,0,0,0,0c0,0,0,0,0,0c0,0,0,0,0,0c0,0,0,0,0,0c0,0.1,0,0.1,0.1,0.1C54,7.2,54,7.3,54,7.3
			c0,0,0,0.2,0.2,0.4c0.1,0.1,0.2,0.3,0.3,0.5c0,0.1,0,0.2-0.1,0.3c0,0-0.1,0.1-0.1,0.2c0,0.1,0,0.2-0.1,0.2c-0.1,0-0.2,0.1-0.4,0.1
			c-0.1,0-0.2,0-0.3,0.1c-0.2,0-0.5,0.1-0.7,0c-0.3,0-0.5,0-0.8,0.1c0,0-0.1,0-0.1,0c0,0-0.1,0-0.1,0c-0.2-0.1-0.3,0-0.4,0
			c0,0-0.1,0-0.2,0C51.1,9,50.8,9,50.5,9C50.2,9,50,9,50,9.1c0,0,0,0.1,0.1,0.1c0.1,0,0.1,0.2,0.1,0.6c0,0.4,0,0.6,0.1,0.6v0.1
			c-0.1,0-0.1,0.2-0.1,0.6c0,0.4,0,0.6-0.1,0.6c-0.1,0-0.1,0.1-0.1,0.2c0,0.1,0,0.2-0.1,0.3c0,0.1-0.1,0.2-0.2,0.4
			c-0.2,0.4-0.3,0.6-0.3,0.6c0,0-0.1,0-0.1,0.1c0,0.1-0.1,0.2-0.2,0.3c-0.1,0.1-0.1,0.2-0.2,0.3c0,0-0.1,0.2-0.3,0.4
			c-0.3,0.3-0.5,0.6-0.5,0.7c0,0.1,0,0.1,0.1,0.1c0,0,0.1,0,0.1,0.1c0,0.1,0.1,0.1,0.1,0.1s0.1,0,0.1,0.1s0,0.1,0.1,0.1c0,0,0,0,0,0
			c0,0,0,0,0,0c0,0,0,0,0,0.1c0,0,0,0,0,0s0,0,0,0c0,0,0,0,0,0c0,0,0,0,0,0c0.1,0,0.2,0.1,0.2,0.1c0,0,0,0.1,0.1,0.1
			c0,0,0.1,0,0.1,0c0.1,0,0.2,0.1,0.3,0.1c0.1,0.1,0.2,0.1,0.4,0.1c0.1,0,0.2,0.1,0.3,0.1c0.1,0.1,0.2,0.1,0.3,0.2c0,0,0,0,0.1,0
			c0,0,0.1,0,0.1,0c0.1,0,0.1,0,0.1,0.1s0,0.1,0.1,0.1c0,0,0.1,0,0.1,0c0,0,0.1,0,0.1,0c0,0,0.1,0.1,0.2,0.1c0.1,0,0.2,0,0.2,0.1
			c0.1,0.1,0.2,0.1,0.3,0.1c0.1,0,0.1,0,0.2,0c0.1,0,0.1,0,0.1,0.1c0.1,0.2,0.3,0.2,0.6,0c0.1,0,0.1-0.1,0.2-0.1
			c0.1,0,0.1,0,0.2,0.1c0.1,0.2,0.2,0.2,0.2,0c0-0.1,0-0.1,0.1-0.1c0.2,0,0.3,0,0.5,0c0.1,0,0.2-0.1,0.4-0.1
			c0.1-0.1,0.2-0.1,0.4-0.1c0.2,0,0.3-0.1,0.4-0.2c0.1-0.1,0.2-0.1,0.3-0.1c0.1,0,0.1,0,0.1-0.1c0-0.1,0-0.1,0.1-0.1s0.1,0,0.1,0.1
			c0,0,0.1,0,0.1,0c0,0,0.1-0.1,0.1-0.1c0.1,0,0.3-0.1,0.3-0.3c0.1-0.2,0.1-0.3,0-0.4c0,0-0.1-0.1-0.1-0.1c0,0,0-0.1,0-0.1
			c0-0.1-0.1-0.2-0.4-0.3c-0.2,0-0.2-0.1-0.2-0.1c0-0.1,0-0.1,0-0.1c0.1,0,0.2,0,0.3,0c0.2,0,0.4,0,0.6,0c0.2,0,0.3,0.1,0.5,0.2
			c0.2,0.1,0.3,0.2,0.3,0.2c0,0.1,0,0.1,0.1,0.1c0.1,0,0.1,0.1,0.2,0.2c0.1,0.1,0.1,0.2,0.1,0.3c0,0.1,0.1,0.2,0.1,0.3
			c0.1,0.1,0.2,0.2,0.2,0.2c0,0,0.1,0,0.1,0.1s0,0.1,0.1,0.1s0.1,0,0.1,0.1c0,0.1,0.1,0.1,0.2,0.1c0.1,0,0.1,0,0.1,0
			c0,0,0.1,0.1,0.1,0.1c0,0,0.1,0.1,0.1,0.1c0,0,0.1,0,0.1,0c0.1,0,0.2,0,0.2,0.1c0,0.1,0,0.1,0.1,0.1c0.1,0,0.1,0.1,0.2,0.2
			c0,0.1,0.1,0.1,0.1,0.1s0.1,0.1,0.2,0.1c0.2,0,0.3,0.1,0.4,0.2c0.1,0.1,0.2,0.2,0.2,0.2c0,0,0.1,0,0.1,0.1
			c0.2,0.3,0.3,0.6,0.3,0.9c0,0.3,0,0.5-0.1,0.6c-0.1,0.1-0.2,0.2-0.2,0.4c-0.1,0.1-0.2,0.3-0.3,0.4c-0.1,0.1-0.3,0.1-0.5,0.1
			c0,0-0.1,0-0.1,0c0,0-0.1,0-0.1,0.1c0,0.1-0.1,0.1-0.1,0.1c0,0-0.1,0-0.2,0c-0.1,0-0.2,0.1-0.2,0c0,0-0.1,0-0.1,0.1
			s-0.2,0.1-0.6,0.3c-0.2,0.1-0.5,0.2-0.7,0.3c-0.1,0.1-0.2,0.1-0.3,0.1c-0.1,0-0.3,0-0.4,0c-0.2,0-0.4,0.1-0.7,0.1
			c-0.2,0-0.4,0-0.5,0.1c0,0-0.1,0-0.1,0c-0.1,0-0.3,0-0.4,0.1c-0.2,0.1-0.4,0.1-0.4,0c0,0,0,0-0.1-0.1c0,0-0.1,0-0.1,0
			c-0.1,0-0.1,0-0.1-0.1c-0.4-0.1-0.7-0.2-1.1-0.1c-0.2,0-0.5-0.1-0.7-0.2c-0.1-0.1-0.3-0.1-0.4-0.2c-0.3,0-0.5-0.2-0.7-0.4
			c0,0-0.1-0.1-0.1-0.1c0,0-0.1,0-0.1,0c-0.1,0-0.1,0-0.1-0.1c0,0,0-0.1,0-0.1c0,0-0.1,0-0.1,0c0,0,0,0,0,0c0,0,0,0,0,0c0,0,0,0,0,0
			c0,0,0,0,0,0c0,0,0,0,0,0c0,0,0,0,0,0c0,0,0-0.1-0.1-0.1c-0.1,0-0.2-0.1-0.5-0.3c-0.3-0.2-0.4-0.3-0.5-0.3s-0.1,0-0.1-0.1
			s0-0.1-0.1-0.2c0,0-0.1-0.1-0.1-0.1s0-0.1,0-0.1c0-0.1-0.1-0.2-0.2-0.2c-0.1,0-0.1,0-0.2-0.1c0,0-0.1-0.1-0.1-0.1
			c0-0.1,0-0.1-0.1-0.2c0,0-0.1-0.1-0.1-0.1c-0.1,0-0.2-0.1-0.2-0.1c-0.2-0.2-0.3-0.5-0.5-0.7c-0.1-0.1-0.1-0.2-0.1-0.3c0,0,0,0,0,0
			c0,0,0,0,0,0c0,0,0,0,0,0c0,0,0,0,0,0c-0.1,0-0.1-0.1-0.1-0.2c0-0.1-0.1-0.2-0.1-0.2c-0.1,0-0.1-0.1-0.1-0.1s-0.1-0.2-0.3-0.4
			L47,16l-0.2,0.2c-0.1,0.1-0.2,0.2-0.3,0.3c-0.1,0.1-0.1,0.1-0.1,0.1c0,0,0,0,0,0c0,0,0,0,0,0c0,0,0,0,0,0.1c0,0.1,0,0.1-0.1,0.1
			S46,16.8,46,16.9S46,17,45.9,17.1c-0.1,0.1-0.2,0.2-0.1,0.2c0,0,0,0.1-0.1,0.1c0,0,0,0-0.1,0c0,0,0,0,0,0.1c0,0,0,0,0,0
			c0,0,0,0,0,0s0,0,0,0c0,0,0,0,0,0c0,0-0.1,0-0.1,0.1c0,0,0,0.1,0,0.1c0,0-0.1,0-0.1,0c-0.1,0.1-0.2,0.1-0.3,0.2
			c-0.1,0.1-0.1,0.2-0.1,0.3c0,0.1-0.1,0.2-0.1,0.3c-0.1,0.1-0.2,0.2-0.2,0.2c-0.1,0-0.1,0-0.1,0.1c0,0-0.1,0.1-0.2,0.2
			c-0.1,0.1-0.2,0.2-0.1,0.3c0,0.1,0,0.1,0,0.1c-0.2,0.1-0.4,0.2-0.5,0.4c-0.3,0.3-0.5,0.4-0.5,0.4c0,0-0.1,0-0.1,0c0,0,0,0-0.1,0.1
			c-0.1,0.2-0.3,0.4-0.6,0.5c-0.1,0-0.1,0.1-0.2,0.2c0,0.1-0.1,0.2-0.2,0.2c-0.1,0.1-0.2,0.1-0.3,0.2c-0.1,0.1-0.2,0.2-0.4,0.2
			c0,0-0.1,0-0.1,0c0,0-0.1,0-0.1,0c0,0,0,0-0.1-0.1s0-0.1,0-0.1c0-0.1,0-0.1-0.1-0.2c0,0-0.1-0.1-0.1-0.1c-0.1,0-0.2-0.2-0.2-0.4
			c0-0.2,0-0.3-0.1-0.4c-0.1-0.2-0.1-0.3-0.1-0.5c0-0.2,0-0.3-0.1-0.5c-0.1-0.2-0.1-0.5-0.1-0.7c0-0.4,0-0.7-0.1-0.7
			c0,0-0.1-0.1-0.1-0.2c0-0.1,0-0.1,0-0.2c0-0.1,0-0.1,0-0.2c0-0.1,0.1-0.1,0.1-0.1c0.1-0.1,0.2-0.1,0.3-0.1c0.1,0,0.2,0,0.2,0.1
			c0,0.1,0,0.1,0,0.1c0.1,0,0.1,0,0.2-0.1c0.1,0,0.1-0.1,0.1-0.2c0,0,0.1-0.1,0.1-0.1c0,0,0.1,0,0.1,0c0.1,0,0.1,0,0.1,0
			c0,0,0,0-0.1,0.1c-0.1,0.1-0.2,0.1-0.3,0.2c-0.1,0.1-0.1,0.1-0.2,0.1c0,0-0.1,0-0.1,0.1s0,0.1,0.1,0.1c0,0,0.1,0,0.1,0
			c0,0,0.1,0,0.1-0.1c0-0.1,0.1-0.1,0.1-0.1c0.1,0,0.2-0.1,0.4-0.2c0.2-0.1,0.3-0.2,0.5-0.3c0,0,0,0,0-0.1c0,0,0,0,0-0.1
			c0-0.1,0-0.1,0.1-0.1c0.1,0,0.1,0,0.1,0c0,0,0-0.1,0.1-0.1c0.1,0,0.1-0.1,0.1-0.2s0.1-0.2,0.1-0.2c0.2-0.1,0.3-0.1,0.4-0.3
			c0.1-0.1,0.3-0.2,0.4-0.3c0-0.1,0.1-0.1,0.2-0.1c0.3-0.1,0.4-0.2,0.4-0.3c0,0,0,0,0,0c0,0,0,0,0,0c0,0,0,0,0,0c0,0,0,0,0,0
			c0,0,0.1,0,0.1,0c0,0,0.1,0,0.1-0.1c0,0,0,0,0-0.1c0,0,0,0,0.1,0c0.2-0.1,0.4-0.3,0.6-0.5c0.2-0.2,0.3-0.3,0.5-0.5
			c0,0,0.1,0,0.1-0.1s0-0.1,0-0.2s-0.1,0-0.1,0.1c-0.1,0.1-0.1,0.1-0.2,0.1c-0.2,0.1-0.3,0.2-0.4,0.3c-0.3,0.2-0.4,0.3-0.4,0.4
			c0,0-0.1,0-0.1,0c0,0-0.1,0.1-0.3,0.2c-0.2,0.1-0.3,0.2-0.3,0.2c-0.1,0,0-0.1,0.1-0.2c0.2-0.1,0.3-0.2,0.3-0.2
			c0.1,0,0.1,0,0.2-0.1c0.1-0.1,0.1-0.1,0.2-0.1c0.1,0,0.2-0.1,0.4-0.3c0.1-0.1,0.2-0.2,0.4-0.3c0.1,0,0.1,0,0.1-0.1
			c0-0.1,0-0.1,0-0.2c0-0.1-0.1-0.2-0.1-0.2c-0.1-0.2-0.4-0.4-0.6-0.5c-0.1,0-0.2-0.1-0.3-0.2c0,0-0.1-0.1-0.1-0.1c0,0-0.1,0-0.1,0
			c-0.1,0-0.2,0-0.3-0.1c-0.1-0.1-0.2-0.1-0.2-0.1c0,0-0.1,0-0.1,0s-0.2-0.1-0.6-0.1c-0.2,0-0.5,0-0.7,0.1l-0.1,0.1l0-0.2
			c0,0,0-0.1,0-0.1c0,0,0-0.1,0-0.1c0,0,0.1-0.1,0.3-0.1c0.1,0,0.3-0.1,0.4-0.1c0.3-0.1,0.6-0.1,0.9-0.1c0.3,0,0.6,0,0.9,0.1
			c0.1,0.1,0.2,0.1,0.3,0.1c0.2,0,0.3,0.1,0.5,0.2c0.2,0.1,0.3,0.2,0.5,0.3c0.1,0.1,0.2,0.1,0.3,0.2c0.1,0.1,0.2,0.2,0.2,0.2
			c0,0,0.1-0.1,0.2-0.2c0.1-0.1,0.1-0.2,0.1-0.2s0-0.1,0.1-0.1c0.1,0,0.1,0,0.1-0.1s0-0.1,0.1,0c0,0,0,0,0,0.1c0,0,0,0.1-0.1,0.1
			c0,0.1-0.1,0.1-0.1,0.1c-0.3,0.3-0.3,0.4-0.2,0.4c0,0,0,0,0,0c0,0,0,0,0,0c0,0,0,0,0,0c0,0,0,0,0,0c0,0,0,0,0,0c0,0,0,0,0,0
			c0,0,0,0,0,0c0,0,0,0,0,0c0.1,0,0.2-0.2,0.6-0.5c0.3-0.3,0.5-0.5,0.5-0.6c0-0.1,0-0.1,0.1-0.1s0.1-0.1,0.3-0.2s0.2-0.2,0.3-0.2
			c0,0,0.1-0.1,0.1-0.2c0-0.1,0.1-0.2,0.1-0.2c0.1,0,0.1-0.1,0.2-0.2c0-0.1,0.1-0.2,0.2-0.3c0.1-0.1,0.1-0.2,0.2-0.4
			c0.1-0.2,0.1-0.3,0.1-0.4c0-0.1,0-0.1-0.1-0.1s-0.1,0.1-0.1,0.2c0,0.1,0,0.1,0,0.2c0,0-0.1,0.1-0.1,0.1C49,10.2,49,10.3,49,10.4
			c0,0.1-0.1,0.2-0.1,0.2s-0.1,0-0.1,0.1c0,0,0,0,0,0c0,0,0,0,0,0c0,0,0,0,0,0c0,0,0,0,0,0c0,0,0,0,0,0c0,0,0,0,0,0c0,0,0,0,0,0
			c0,0,0,0,0,0c0,0.1-0.1,0.2-0.3,0.3c-0.2,0.2-0.3,0.3-0.3,0.3c0,0-0.1,0.2-0.3,0.4s-0.3,0.3-0.4,0.3c-0.1,0-0.1-0.1,0.1-0.2
			c0.2-0.1,0.3-0.2,0.3-0.4c0-0.1,0-0.1,0.1-0.1c0,0,0.1,0,0.1,0c0,0,0,0,0.1-0.1c0-0.1,0.1-0.2,0.1-0.2c0-0.1,0.1-0.1,0.2-0.1
			c0,0,0.1,0,0.1-0.1c0-0.1,0.1-0.2,0.2-0.3c0.1-0.1,0.2-0.2,0.2-0.4c0,0,0-0.1,0.1-0.1c0,0,0,0,0,0L49,9.9c0-0.1,0.1-0.3,0.1-0.4
			c0.1,0,0.1-0.1,0.1-0.3C49.2,9.1,49.1,9,49,9c-0.1,0-0.3,0-0.4,0.1c-0.2,0.1-0.3,0.1-0.5,0.1c-0.2,0-0.4,0.1-0.5,0.1
			c-0.2,0.1-0.5,0.1-0.8,0.1c-0.4,0-0.6,0-0.6,0.1c0,0-0.1,0.1-0.3,0.1c-0.2,0-0.3,0.1-0.5,0.1c-0.5,0.2-1,0.2-1.6,0.1
			c-0.6,0-0.9,0-0.9,0c0,0,0-0.1,0-0.2c0-0.1,0-0.1-0.1-0.2c0-0.1-0.1-0.1-0.1-0.1c-0.1-0.1-0.2-0.2-0.2-0.4c0-0.1-0.1-0.2-0.1-0.4
			c-0.1-0.2-0.1-0.3-0.1-0.5c0-0.5-0.1-0.8-0.3-0.8c-0.1,0-0.2-0.1-0.2-0.2c0-0.1,0-0.1,0.1-0.2c0,0,0.1-0.1,0.1-0.1
			c0.3-0.2,0.5-0.2,0.6-0.1c0,0.1,0.1,0,0.3-0.1c0.1-0.1,0.3-0.1,0.4-0.2c0,0,0.1,0,0.1,0c0,0,0.1-0.1,0.1-0.1
			c0.1-0.1,0.1-0.1,0.1-0.1c0.1,0,0.2-0.1,0.3-0.1c0.1-0.1,0.2-0.1,0.3-0.1c0,0,0,0,0,0c0,0,0,0,0,0c0,0,0,0,0,0c0,0,0,0,0,0
			c0,0-0.1,0-0.1,0c0,0-0.1,0-0.1,0c-0.1,0-0.1,0-0.1,0.1c0,0-0.1,0.1-0.3,0.2C43.3,6.6,43,6.8,42.8,7C42.8,7,42.8,7,42.8,7
			C43,7,43.3,6.9,43.5,6.7c0.1-0.1,0.2-0.1,0.3-0.1c0,0,0.1,0,0.1,0c0,0,0.1,0,0.1-0.1c0.1-0.1,0.2-0.1,0.3-0.2
			c0.1-0.1,0.2-0.1,0.2-0.1c0,0,0.1-0.1,0.2-0.1c0.1-0.1,0.2-0.1,0.2-0.1s0-0.1,0.1-0.1c0.1,0,0.2-0.1,0.3-0.1
			c0.1-0.1,0.2-0.2,0.4-0.2c0.1,0,0.2-0.1,0.3-0.2c0.1-0.1,0.2-0.2,0.3-0.2c0,0,0.1-0.1,0.3-0.2c0.2-0.1,0.2-0.2,0.3-0.2
			s0.1,0,0.2-0.1c0.1-0.1,0.2-0.2,0.2-0.2c0.1-0.1,0.1-0.1,0.1-0.1c0,0-0.1,0-0.2,0c-0.1,0-0.1,0.1-0.2,0.1
			c-0.1,0.1-0.2,0.2-0.3,0.3c-0.1,0.1-0.2,0.1-0.3,0.2c0,0-0.1,0-0.1,0c0,0,0,0,0,0.1C46.2,5,46.2,5,46.1,5C46.1,5,46,5,46,5.1
			s0,0.1-0.1,0.1c-0.1,0-0.3,0.1-0.4,0.2c-0.1,0.1-0.2,0.2-0.3,0.2c0,0-0.1,0-0.1,0c0,0-0.1,0-0.1,0.1c0,0-0.1,0.1-0.1,0.1
			c0,0-0.1,0-0.1,0c0,0-0.1,0-0.1,0c0,0-0.1,0-0.1,0.1c-0.2,0.2-0.3,0.2-0.3,0.1c0-0.1,0.1-0.1,0.3-0.2c0.2-0.1,0.3-0.2,0.5-0.3
			c0.1-0.1,0.2-0.1,0.3-0.1c0.1,0,0.1,0,0.1-0.1c0-0.1,0.1-0.1,0.2-0.2C45.7,5.1,45.8,5,45.8,5c0,0,0.1-0.1,0.2-0.1
			c0.1-0.1,0.3-0.2,0.4-0.3c0.1-0.1,0.2-0.2,0.2-0.2c0,0,0.1,0,0.1,0c0,0,0,0,0-0.1c0,0,0,0,0.1-0.1c0,0,0.1,0,0.1,0
			c0.1,0,0.1-0.1,0.2-0.2c0.1-0.1,0.2-0.2,0.2-0.2c0,0,0.1,0,0.1,0c0,0,0,0,0.1-0.1c0-0.1,0-0.2,0-0.3c0-0.1-0.1-0.2-0.2-0.2
			c0,0,0,0,0,0c0,0,0,0,0,0c0,0,0,0,0,0c0,0,0,0,0,0c0-0.1-0.1-0.1-0.1-0.1c0,0-0.1-0.1-0.3-0.2c-0.2-0.1-0.3-0.2-0.4-0.2
			s-0.1,0.1-0.1,0.1s-0.1,0-0.2,0c-0.1,0-0.1-0.1-0.1-0.1c0,0,0-0.1,0-0.2c0,0,0-0.1,0.1-0.1C46.1,2.4,46.1,2.4,46.2,2.4L46.2,2.4z
			 M41.5,16.9c0.1-0.1,0.2-0.1,0.2,0C41.7,16.9,41.7,16.9,41.5,16.9C41.4,17.1,41.4,17,41.5,16.9L41.5,16.9z M42.8,15.9
			c0.2-0.2,0.2-0.2,0.2-0.1C43,15.9,42.9,16,42.8,15.9c0,0.1-0.1,0.1-0.1,0.2c0,0,0,0,0,0.1c0,0,0,0,0,0.1c0,0-0.1,0.1-0.1,0.1
			c-0.1,0.1-0.2,0.1-0.3,0.2l-0.1,0c0-0.1,0.1-0.2,0.3-0.3S42.7,16,42.8,15.9L42.8,15.9z M43.3,15.5c0.2-0.1,0.3-0.1,0.3-0.1
			c0,0.1,0,0.1-0.1,0.1c0,0-0.1,0-0.1,0c0,0-0.1,0.1-0.1,0.1c0,0.1-0.1,0.1-0.1,0.1C43.1,15.8,43.2,15.7,43.3,15.5L43.3,15.5z
			 M47.2,12.3c0.1-0.1,0.1-0.1,0.1,0.1c0,0,0,0,0,0c0,0,0,0,0,0c0,0,0,0,0,0c0,0,0,0,0,0C47.1,12.4,47.1,12.4,47.2,12.3L47.2,12.3z
			 M47.4,9.3L47.4,9.3h-0.2C47.2,9.3,47.3,9.3,47.4,9.3L47.4,9.3z M47.7,3.9c0-0.1-0.1-0.1-0.2,0.1s-0.2,0.2-0.1,0.2
			c0.1,0,0.1,0,0.1-0.1C47.7,4,47.7,4,47.7,3.9L47.7,3.9z M49.4,9.3c0,0,0.1,0,0.1-0.1c0-0.1,0-0.1-0.1-0.1s-0.1,0-0.1,0.1
			S49.4,9.3,49.4,9.3L49.4,9.3z M49.4,9.6C49.4,9.6,49.4,9.6,49.4,9.6c0.1-0.1,0.1-0.1,0-0.1c0,0,0,0,0,0c0,0,0,0,0,0c0,0,0,0,0,0
			C49.3,9.5,49.3,9.5,49.4,9.6C49.3,9.6,49.4,9.6,49.4,9.6L49.4,9.6z"/>
		<path class="st1" d="M60.2,10c0.1-0.1,0.2-0.1,0.3-0.2c0.1,0,0,0.1-0.3,0.4l-0.2,0.2c-0.3,0.2-0.5,0.5-0.6,0.8
			c-0.1,0.2-0.1,0.3-0.2,0.3c-0.1,0-0.1-0.1,0-0.3l0.1-0.1C59.4,10.7,59.8,10.3,60.2,10L60.2,10z M64.5,4c0.2-0.1,0.4-0.1,0.5-0.2
			c0.2,0,0.4,0.1,0.5,0.2c0.3,0.1,0.4,0.2,0.4,0.3c0,0.1,0.1,0.1,0.2,0.2c0.3,0.2,0.5,0.5,0.6,0.8c0.2,0.4,0.3,0.9,0.3,1.3
			c0,0.4,0,0.7-0.1,0.7c-0.1,0-0.1,0.2-0.1,0.4c0,0.3-0.1,0.5-0.2,0.8c-0.1,0.3-0.3,0.5-0.4,0.8c-0.3,0.3-0.5,0.6-0.5,0.7
			c0,0.1-0.1,0.3-0.2,0.4c-0.1,0.2-0.3,0.3-0.4,0.5c-0.3,0.2-0.3,0.4-0.1,0.5c0.2,0.2,0.4,0.4,0.5,0.7c0.2,0.3,0.3,0.6,0.5,0.9
			c0.2,0.8,0.4,1.7,0.5,2.5c0.1,0.8,0.1,1.7,0,2.5c-0.1,0.7-0.1,1.1-0.2,1.2c-0.1,0.8-0.4,1.1-1,0.8c-0.1-0.1-0.3-0.2-0.3-0.3
			c-0.1-0.2-0.2-0.4-0.3-0.6c-0.1-0.5-0.3-0.9-0.5-1.3c-0.1-0.2-0.1-0.3-0.1-0.5c0-0.2-0.1-0.3-0.2-0.5c0-0.1-0.1-0.1-0.1-0.1
			c-0.1,0-0.1-0.1-0.2-0.1c0,0,0,0-0.1,0c0,0,0,0,0-0.1c0,0,0-0.1,0-0.2c0-0.1,0.1-0.2,0.1-0.3c0.2-0.4,0.3-0.7,0.4-0.7
			c0,0.1,0,0.3-0.1,0.4l-0.1,0.3c0,0.1,0,0.2,0,0.2c0,0,0,0,0,0.1c0,0,0,0,0.1,0c0.1,0,0.3-0.6,0.5-1.9c0.1-0.5,0.1-0.9,0.1-1.4
			c0-0.4,0-0.7-0.2-1.1l-0.1-0.2l-0.1,0.2c0,0.2-0.1,0.2-0.1,0c0-0.1-0.2,0-0.5,0.3c-0.3,0.3-0.5,0.5-0.6,0.5
			c-0.3,0.1-0.5,0.3-0.7,0.6C62,13.9,61.7,14,61.6,14c-0.1,0-0.1,0-0.1,0.1c0,0.1-0.1,0.1-0.2,0.2c-0.1,0-0.2,0-0.3,0
			s-0.2-0.1-0.2-0.2C60.6,14,60.5,14,60.5,14s-0.1,0-0.1-0.1c0-0.2-0.1-0.3-0.2-0.5c-0.4-0.6-0.7-1.4-0.7-2.1
			c0.1-0.2,0.3-0.4,0.4-0.5c0.3-0.3,0.4-0.4,0.5-0.4c0.1,0,0.2-0.1,0.3-0.2l0.8-0.7c0.4-0.3,0.7-0.7,1-1C62.8,8.1,63,8,63.1,8.1
			c0,0,0,0,0,0c0,0,0,0,0,0c0,0,0,0,0,0c0,0,0,0,0,0c0-0.1,0.1-0.3,0.3-0.5c0.3-0.3,0.6-0.6,0.8-1c0.1-0.2,0.2-0.3,0.3-0.3
			c0.1,0,0.1,0,0.1-0.2c0-0.1,0-0.2,0.1-0.2c0.1,0,0.1-0.1,0.3-0.4C65,5.3,65.1,5.2,65.1,5c0,0-0.1,0-0.2,0.1c0,0.1-0.1,0.1-0.2,0.2
			c-0.3,0.6-0.7,1.1-1.2,1.6c-0.3,0.4-0.5,0.5-0.5,0.3c0-0.1,0-0.1,0.2-0.1c0.1,0,0.2,0,0.2-0.1c0-0.1,0.1-0.2,0.3-0.5
			s0.3-0.3,0.3-0.4c0-0.1,0.2-0.3,0.5-0.6c0.1-0.1,0.1-0.3,0.2-0.4c0.1-0.2,0.1-0.3,0.1-0.5c0,0,0,0-0.1,0c-0.1,0-0.2,0-0.2,0
			c-0.1,0-0.1,0-0.2,0.1c0,0,0,0,0,0c0,0,0,0-0.1,0c0,0,0,0-0.1,0c0,0,0,0,0,0C64,4.6,64,4.5,64.1,4.4C64.2,4.2,64.3,4.1,64.5,4
			L64.5,4z M60.8,9.6c0.1-0.1,0.1-0.1,0.2-0.2l0.1,0C61,9.5,60.9,9.6,60.8,9.6c-0.1,0.2-0.1,0.3-0.2,0.2C60.5,9.8,60.6,9.7,60.8,9.6
			L60.8,9.6z M62.3,8.2C62.7,7.7,63,7.6,63,7.7c0,0.1-0.1,0.1-0.2,0.1c-0.1,0-0.2,0-0.2,0.1c0,0-0.2,0.2-0.5,0.5
			c-0.3,0.3-0.5,0.5-0.6,0.7c0,0-0.1,0.1-0.1,0.1c0,0-0.1,0.1-0.2,0.1c-0.1,0,0-0.1,0.2-0.3C61.6,8.8,61.9,8.6,62.3,8.2L62.3,8.2z
			 M64.1,14.9L64.1,14.9c0.1,0,0.1,0.1,0.1,0.1L64.1,14.9L64.1,14.9z M73,5.3C73,5.2,73,5.1,73.1,5c0.1-0.1,0.2-0.1,0.2,0
			c0.1,0.2,0.2,0.4,0.3,0.6c0.1,0.2,0.2,0.4,0.2,0.6c0,0.2,0,0.6,0,1.4c0,0.5,0,1.1-0.1,1.6c-0.1,0.2-0.2,0.3-0.1,0.3
			c0.1,0,0.2-0.1,0.4-0.4c0.2-0.2,0.3-0.3,0.4-0.2c0.1,0,0.1,0,0.1,0c0-0.1,0.2-0.3,0.7-0.8c0.4-0.4,0.8-0.7,1.2-1
			c0.3-0.2,0.4-0.4,0.3-0.4c-0.1,0-0.2,0.1-0.5,0.4c-0.3,0.3-0.4,0.4-0.5,0.3c-0.1,0-0.1-0.1,0-0.1c0.1,0,0.2-0.1,0.3-0.2
			c0.3-0.3,0.5-0.5,0.9-0.8c0.3-0.2,0.6-0.4,0.9-0.6c0.2,0,0.2-0.1,0.2-0.1c0-0.1,0.1-0.1,0.4-0.1h0.4v0.5c0,0.3,0,0.6-0.2,0.8
			c-0.1,0.1-0.1,0.2-0.2,0.3c0,0.1-0.1,0.2-0.3,0.3C78,7.7,77.8,7.8,77.6,8c-0.2,0.2-0.4,0.4-0.7,0.6c-0.3,0.2-0.4,0.4-0.5,0.4
			c-0.1,0.1-0.5,0.4-1.2,1c-0.9,0.8-1.5,1.2-1.6,1.4c-0.2,0.3-0.3,0.6-0.4,1c-0.1,0.8-0.2,1.7-0.1,2.5V15c0,0.6,0,1.2,0.2,1.7
			c0.1,0.2,0.4,0.3,1,0.3h0.1c0.6,0,1.2-0.1,1.8-0.2c0.6-0.1,1-0.2,1.2-0.3c0.2,0,0.4-0.1,0.6-0.3c0.2-0.1,0.3-0.3,0.3-0.5
			c0.2-0.4,0.3-0.5,0.5-0.5c0,0,0,0,0.1,0c0,0,0,0,0.1,0c0,0,0,0,0-0.1c0,0,0,0,0-0.1c0-0.2,0.1-0.4,0.2-0.6
			c0.1-0.2,0.2-0.4,0.2-0.7c0-0.1,0-0.1,0-0.2c0-0.1,0.1-0.1,0.1-0.1c0.1,0,0.1-0.1,0.1-0.1c0-0.1,0-0.1,0-0.2
			c0-0.2,0.1-0.4,0.2-0.5c0.1-0.3,0.2-0.5,0.3-0.8c0-0.2,0.1-0.4,0.2-0.6c0.1,0,0.1-0.1,0.1-0.2c0-0.1,0-0.1,0-0.2c0,0,0-0.1,0-0.1
			c-0.1,0-0.3,0.5-0.7,1.4c-0.1,0.4-0.3,0.7-0.4,1c-0.1,0.2-0.1,0.3-0.1,0.3c0,0,0-0.1,0-0.1c0-0.2,0.1-0.5,0.2-0.7
			c0.1-0.2,0.2-0.3,0.2-0.5c0-0.2,0.1-0.4,0.2-0.5c0.2-0.5,0.4-1,0.5-1.5c0.1-0.2,0.2-0.3,0.3-0.3c0.2,0,0.3,0,0.3-0.1
			s0-0.1,0.1-0.1c0.2,0,0.4,0.1,0.6,0.1c0.1,0,0.3,0.1,0.4,0.2c0,0.1,0.1,0.1,0.2,0.2c0.1,0.1,0.1,0.1,0.2,0.2c0,0.2,0,0.3,0,0.5
			l-0.2,0.9c0,0.2-0.1,0.4-0.2,0.5c-0.1,0.2-0.1,0.4-0.1,0.6c0,0.2-0.1,0.5-0.2,0.7c-0.1,0.2-0.1,0.4-0.1,0.4c0.1,0.1,0.1,0.2,0,0.4
			c-0.1,0.3,0,0.7,0,1c0.1,0.3,0.1,0.6,0,0.9c0,0.1,0,0.2,0,0.3c0.1,0,0,0.2,0,0.4c-0.2,0.5-0.2,0.8,0,0.9c0.2,0.1,0.1,0.3-0.1,0.5
			c-0.4,0.3-0.9,0.5-1.5,0.5c-0.3,0-0.6,0.1-1,0.2c-1.2,0.4-2.5,0.6-3.8,0.5c-0.2-0.1-0.5-0.1-0.8-0.2c-0.6-0.1-1.1-0.2-1.6-0.5
			c-0.3-0.1-0.4-0.3-0.4-0.4c0-0.2,0-0.2-0.1-0.2c-0.1,0-0.2-0.1-0.2-0.3c-0.2-0.4-0.4-0.8-0.6-1.2c-0.2-0.5-0.2-1-0.2-1.5
			c0-0.8-0.1-1.3-0.2-1.3c-0.1,0-0.1,0.3-0.1,0.8l0,0.7l0-0.6l0-0.7l-0.4,0.3c-0.2,0.2-0.4,0.3-0.4,0.3c0,0.1-0.1,0.1-0.2,0.1
			c-0.1,0-0.2,0-0.2,0.1c0,0.1-0.1,0.2-0.3,0c-0.1,0-0.1-0.1-0.2-0.1c-0.2-0.3-0.3-0.6-0.3-1c-0.1-0.5,0-0.7,0.1-0.8
			c0.1,0,0.1-0.1,0.1-0.2c0-0.1-0.1-0.2-0.1-0.3c-0.1-0.1-0.1-0.2-0.1-0.3c0-0.1,0.1-0.1,0.4-0.2c0.2-0.1,0.3-0.1,0.4-0.1
			c0,0,0,0.1-0.2,0.2c0,0,0,0,0,0c0,0,0,0,0,0c-0.2,0.1-0.2,0.2-0.1,0.2c0.2,0,0.4-0.1,0.6-0.2c0.2-0.1,0.4-0.2,0.5-0.4
			c0.1-0.2,0.2-0.2,0.1-0.2c-0.1,0-0.2,0.1-0.3,0.2c-0.3,0.2-0.4,0.2-0.4,0.2c0-0.1,0-0.1,0.1-0.1c0.1-0.1,0.3-0.1,0.4-0.2
			c0.3-0.2,0.4-0.3,0.4-0.1c0,0.2,0.1,0.2,0.4,0c0.2-0.2,0.3-0.2,0.3-0.1v0.1c0,0.1,0,0.1,0.1,0.1c0.1,0,0.1-0.1,0.1-0.3
			c0-0.2,0-0.3,0-0.5c0-0.1,0-0.1,0.1-0.2c0.1-0.1,0.1-0.3,0.2-0.4c0-0.2,0.1-0.3,0.1-0.4c0.1-0.2,0.2-0.5,0.2-0.7
			c0-0.3,0.1-0.5,0.2-0.8c0.2-0.4,0.3-0.9,0.3-1.4c0.1-0.4,0.1-0.8-0.1-1.2c-0.1-0.1-0.1-0.2,0-0.2c0.1-0.1,0.1,0,0.2,0.1
			C73,5.3,73,5.4,73.1,5.4C73.2,5.4,73.1,5.3,73,5.3L73,5.3z M71.1,15.8c0-0.2,0-0.3,0.1-0.3c0,0,0,0,0.1,0c0,0,0,0,0,0
			c0,0,0,0.1,0,0.2c0,0.1-0.1,0.1-0.1,0.2C71.2,15.9,71.1,15.9,71.1,15.8L71.1,15.8z M73.2,5.8c0-0.2,0-0.3-0.1-0.3l-0.1,0.3V6
			c0,0.5-0.1,0.9-0.2,1.4c-0.1,0.4-0.2,0.9-0.4,1.3c-0.1,0.3-0.2,0.6-0.2,0.9c-0.1,0.3-0.1,0.6-0.2,0.9c-0.1,0.1-0.1,0.2,0,0.3
			c0,0,0.1,0,0.2-0.1c0.1-0.1,0.1-0.2,0.1-0.4c0-0.1,0-0.3,0.1-0.4c0-0.1,0.1-0.4,0.3-0.9c0.1-0.5,0.2-0.9,0.3-1.1
			c0-0.1,0-0.3,0.1-0.4C73.1,6.9,73.2,6.4,73.2,5.8L73.2,5.8z M74.1,8.7c0.1-0.2,0.2-0.2,0.2-0.2c0,0,0,0.1,0,0.1
			c0,0.1-0.1,0.2-0.2,0.2c-0.1,0-0.1,0-0.1,0C74,8.8,74,8.7,74.1,8.7L74.1,8.7z M75,8c0.5-0.4,0.7-0.6,0.7-0.5c0,0.1,0,0.1-0.1,0.1
			C75.4,7.7,75.2,7.9,75,8c-0.2,0.4-0.4,0.5-0.5,0.5S74.6,8.3,75,8L75,8z"/>
		<path class="st1" d="M87.3,4.9c0.2-0.2,0.4-0.2,0.8,0c0.2,0.2,0.4,0.4,0.5,0.7c0.2,0.2,0.3,0.4,0.4,0.7c0,0.1,0.2,0.2,0.6,0.2
			c0.4,0.1,0.8,0.3,1.1,0.7c0.1,0.1,0.2,0.3,0.4,0.4c0.1,0.1,0.2,0.2,0.2,0.2c0,0,0.1,0.2,0.2,0.3c0.2,0.2,0.2,0.3,0.2,0.3
			c0,0,0,0.1,0,0.1c0,0,0,0.1,0.1,0.1c0.1,0.1,0.2,0.3,0.2,0.6c0,0.2,0,0.4-0.1,0.6c-0.1,0.1-0.1,0.2-0.2,0.3
			c-0.1,0.3-0.3,0.5-0.6,0.7c-0.3,0.3-0.6,0.5-1,0.7c-0.4,0.2-0.6,0.4-0.6,0.5c0,0.2,0,0.4-0.1,0.4c-0.1,0-0.1,0.2-0.2,0.4
			s0,0.4,0.1,0.4c0.1,0,0.3,0,0.4-0.1c0.1,0,0.1,0,0.2,0c0.1,0,0.1,0,0.2,0.1c0.1,0.1,0.2,0.1,0.1,0.2c0,0.1,0,0.1,0,0.2
			c0,0,0.1,0.1,0,0.3c0,0.1,0,0.1,0,0.2c0,0.1,0.1,0.1,0.1,0.2c0,0,0.1,0.1,0.1,0.1c0,0,0,0.1,0,0.1c0,0.2,0.1,0.4,0.2,0.6
			c0.1,0.2,0.1,0.3,0.1,0.3c-0.1,0.1-0.2,0.3-0.4,0.3C90.1,15.9,90,16,90,16.1c0,0.1,0,0.1-0.1,0.1c0,0,0,0-0.1,0c0,0,0,0,0,0
			c0,0,0,0,0,0c0,0,0,0,0,0.1c0,0.1,0,0.2,0,0.2c0,0.1-0.1,0.2-0.2,0.3c-0.1,0-0.2,0-0.2,0l-0.1,0.1C89.1,17,89,17.1,89,17.1
			c-0.2,0.1-0.5,0.2-0.7,0.4c-0.2,0.1-0.4,0.3-0.7,0.4c-0.1,0-0.1,0.1-0.2,0.2c0,0-0.1,0.1-0.1,0.1c-0.1,0-0.1,0.1-0.2,0.1
			c-0.1,0-0.1,0-0.1,0.1c0,0,0,0.1-0.2,0.2c-0.2,0.1-0.2,0.2-0.2,0.2c0,0.1-0.2,0.3-0.6,0.6c-0.1,0.1-0.2,0.1-0.4,0.2
			c-0.1,0-0.3,0-0.4,0c-0.3,0-0.5-0.1-0.7-0.3c-0.1-0.1-0.2-0.2-0.2-0.2c0-0.1-0.1-0.2-0.1-0.3c0-0.2,0-0.2-0.1-0.2
			c-0.1,0-0.1-0.3-0.1-1c0-0.6,0-1-0.2-1.1c-0.1-0.1-0.1-0.2,0-0.3c0.1-0.1,0.1-0.1,0.1-0.1s-0.1,0-0.2,0c0,0-0.1,0-0.1,0
			c0,0-0.1,0-0.1-0.1c0,0,0.1-0.1,0.1-0.1c0.4,0,0.8-0.1,1.2-0.2c0.1-0.1,0.2-0.1,0.2,0c0,0.2,0.2,0.1,0.6-0.3
			c0.1-0.1,0.2-0.2,0.3-0.4c0.1-0.1,0.2-0.3,0.4-0.6c0.2-0.2,0.3-0.4,0.3-0.6c0-0.1,0-0.2,0.1-0.2c0.1,0,0.1,0,0.1-0.1
			c0-0.2,0-0.3,0.1-0.5c0-0.2,0.1-0.3,0.2-0.5c0.1-0.1,0-0.2,0-0.3c0-0.1-0.1-0.1-0.1-0.1c-0.1,0-0.1,0-0.2-0.1
			c-0.2,0-0.4-0.1-0.5-0.3c-0.2-0.2-0.3-0.3-0.3-0.4c0-0.1-0.1-0.1-0.2-0.2c-0.1,0-0.1-0.1-0.2-0.1c0,0-0.1-0.1-0.1-0.2
			c-0.1-0.2-0.1-0.2-0.2-0.2c-0.1,0-0.1,0,0-0.1c0-0.1,0-0.1-0.1-0.1s-0.1-0.1-0.2-0.4c0-0.2-0.1-0.4-0.1-0.4C85,9.5,85,9.4,85,9.2
			c0-0.2,0-0.4-0.1-0.6c-0.1-0.2-0.2-0.3-0.3-0.5c-0.1-0.1-0.2-0.2-0.2-0.3c0-0.1-0.1-0.3-0.2-0.4C83.8,7.1,83.8,7,84.2,7
			c0.2,0,0.4,0,0.6,0.1c0.2,0.1,0.3,0.1,0.3,0.2c0.1,0.1,0.1,0.2,0.2,0.3c0.1,0.1,0.2,0.3,0.3,0.5c0.1,0.2,0.1,0.4,0.3,0.6
			c0.1,0.2,0.2,0.2,0.3,0.2c0.1,0,0.2-0.1,0.3-0.1c0.1,0,0.2,0,0.2-0.1c0.2-0.1,0.3-0.2,0.5-0.2c0.1-0.1,0.3-0.1,0.4-0.2
			c0.1-0.1,0.1-0.3,0.1-0.4c0-0.3,0-0.4,0-0.5c0,0-0.1,0-0.3,0.1c-0.1,0.1-0.3,0.1-0.4,0.1c-0.1,0,0,0,0.1-0.1
			c0.2-0.1,0.3-0.2,0.4-0.3c0.1-0.1,0.2-0.3,0.2-0.5c0-0.1,0-0.2-0.1-0.3c-0.1-0.1-0.1-0.2-0.2-0.2c-0.3-0.2-0.4-0.3-0.4-0.4
			c0.1,0,0.1-0.1,0-0.1c-0.2-0.1-0.2-0.3,0-0.4c0.1-0.1,0.1-0.1,0.1-0.2S87.2,5,87.3,4.9z M86.3,8C86.3,8,86.3,8,86.3,8
			c0-0.2,0-0.2,0.1-0.2s0,0,0,0.1S86.4,8,86.3,8L86.3,8z M89.5,16.7C89.5,16.7,89.5,16.7,89.5,16.7c0.1-0.2,0.1-0.2,0.1-0.2
			c0,0,0,0,0,0c0,0,0,0,0,0c0,0,0,0,0,0C89.4,16.6,89.4,16.6,89.5,16.7C89.4,16.7,89.5,16.7,89.5,16.7L89.5,16.7z M99,3.9l0-0.2
			l0.2,0.2C99.3,4,99.3,4.1,99.3,4l0.1,0.1c0.2,0.7,0.3,1.4,0.2,2.1c0,0.2,0,0.5,0.1,0.7C99.8,7,100,7,100.3,7c0.3,0,0.5,0,0.8,0.1
			c0.4,0.1,0.8,0.1,1.1,0.1c0.6,0,0.8,0.1,0.9,0.1c0,0.1,0.1,0.1,0.2,0c0.1,0,0.1,0,0.1,0c0.1,0.2,0.2,0.4,0.4,0.5
			c0.1,0.1,0.3,0.3,0.4,0.5c0.1,0.1,0.1,0.3,0.2,0.4c0.1,0.2,0.2,0.3,0.4,0.5c0,0,0.1,0.1,0.1,0.1c0,0.1,0.1,0.1,0.1,0.2
			c0,0.1,0,0.2,0.1,0.3c0,0.2,0,0.4,0,0.6c-0.1,0.3-0.1,0.5-0.2,0.5c-0.1,0.1-0.2,0.3-0.3,0.4c-0.3,0.4-0.6,0.8-1,1.1
			c-0.3,0.3-0.7,0.6-1,0.8c-0.2,0.1-0.4,0.2-0.5,0.3c-0.2,0.2-0.4,0.4-0.8,0.7c-0.2,0.2-0.4,0.4-0.7,0.5c-0.4,0-0.5,0-0.5-0.2
			c0-0.1-0.1-0.3-0.2-0.3c-0.1-0.1-0.2-0.2-0.1-0.3c0,0,0-0.1,0-0.1s0-0.1,0-0.1c0-0.1-0.1-0.2-0.1-0.3c0-0.1,0-0.2,0.1-0.3
			c0.1-0.1,0.1-0.1,0-0.2c-0.1,0-0.1-0.2-0.1-0.5s0-0.4-0.1-0.4s-0.1-0.1-0.2-0.4c-0.1-0.3-0.1-0.4-0.1-0.5c0,0,0,0,0,0c0,0,0,0,0,0
			c0,0,0,0,0,0c0,0,0,0,0,0c0,0,0,0,0,0c0,0,0,0.1,0,0.1c0,0.1,0,0.2-0.1,0.2c0,0.1,0,0.3-0.1,0.4c0,0.2-0.1,0.3-0.1,0.5
			c-0.1,0.2-0.1,0.3-0.2,0.5c-0.1,0.4-0.2,0.8-0.5,1.2c-0.2,0.2-0.4,0.1-0.6-0.4c-0.1-0.2-0.1-0.3-0.2-0.5c-0.1-0.2-0.1-0.3-0.2-0.5
			c0-0.2,0-0.2,0-0.2c0,0,0,0,0-0.1c-0.1-0.1-0.1-0.3-0.2-0.4c0-0.2-0.1-0.3-0.2-0.3c-0.1,0-0.1-0.1-0.1-0.2c0-0.1,0-0.1,0-0.2
			c0-0.1,0-0.1,0.1-0.1C97,11,97,10.9,97,10.8c0-0.1,0.1-0.3,0.2-0.4c0.1-0.1,0.1-0.2,0.1-0.2c-0.1,0,0,0,0-0.1c0,0,0.1-0.1,0.1-0.1
			c0,0,0-0.1,0-0.1c0-0.1,0-0.2,0.1-0.2c0.1,0,0.1-0.1,0.1-0.2c0-0.2,0.1-0.4,0.1-0.6c0.1-0.3,0.1-0.5,0-0.5c-0.1,0-0.1,0-0.1,0
			c0,0.1-0.1,0.1-0.2,0.1s-0.2,0-0.3,0.1c-0.2,0.2-0.4,0.3-0.6,0.4c-0.2,0.1-0.4,0.2-0.6,0.2l0,0.1c0,0.1,0,0.1,0,0.1
			c-0.1,0-0.2,0.3-0.2,0.9l0.1,0.5c0.1,0,0.1,0,0.1,0.1c0,0.1,0,0.2-0.1,0.3c-0.1,0.6-0.1,1.3-0.1,2c0,0.7,0,1.4,0.1,2.1
			c0,0.1,0.1,0.2,0.1,0.3c0.1,0.1,0.1,0.1,0.2,0.2c0.3,0.1,0.6,0.1,0.9,0.1c0.3,0,0.5,0,0.7,0.1c0.1,0.1,0.3,0.1,0.4,0.1
			c0.3,0,0.6,0.1,1,0.2c0.3,0.1,0.5,0.1,0.8,0.1c0.1,0,0.2,0,0.2,0c0,0.2,0.7,0.3,2.1,0.3c0.5,0,0.9,0,1.4-0.1
			c0.1,0,0.3-0.1,0.5-0.2c0.2-0.1,0.5-0.1,0.7-0.3c0.2-0.1,0.3-0.2,0.3-0.1c0,0,0.1,0,0.2-0.1c0,0,0.1-0.1,0.1-0.1c0,0,0.1,0,0.1,0
			c0.1,0,0.1,0,0.1-0.1c0,0,0.1-0.1,0.2-0.3c0.2-0.2,0.4-0.3,0.5-0.5c0.2-0.1,0.3-0.2,0.3-0.4c0.1-0.2,0.1-0.3,0.2-0.3
			c0.1,0,0.2-0.1,0.3-0.2c0.1-0.1,0.2-0.2,0.2-0.4c0-0.2,0.1-0.3,0.2-0.4c0.1-0.2,0.2-0.4,0.3-0.6c0-0.2,0.1-0.3,0.2-0.3
			c0.1-0.1,0.2-0.3,0.2-0.4c0.1-0.2,0.2-0.4,0.2-0.5c0-0.1,0.1-0.2,0.2-0.4c0.1-0.1,0.1-0.3,0.1-0.5l0-0.1l0.1,0
			c0-0.1,0.1-0.1,0.1-0.2c0.1-0.1,0.1-0.1,0.1-0.2c0.5-1,0.8-1.5,0.9-1.6c0.1-0.1,0.2-0.3,0.4-0.7c0.1-0.2,0.2-0.4,0.4-0.6
			c0.1-0.1,0.2-0.2,0.3-0.4c0.1-0.1,0.1-0.2,0.2-0.3c0-0.1,0-0.1,0.1-0.1c0.1,0,0.1-0.1,0.1-0.4c0-0.2,0.1-0.4,0.2-0.5
			c0.3-0.2,0.5-0.5,0.6-0.9l0.1-0.3L112,4.3c-0.1,0.1-0.2,0.1-0.2,0.1c0-0.1,0-0.2,0.1-0.3c0.1-0.1,0.2-0.2,0.4-0.2
			c0.2,0,0.4,0.1,0.6,0.2c0.1,0.1,0.2,0.2,0.3,0.2c0,0,0.1,0,0.1,0c0,0,0.1,0.1,0.1,0.1c0,0.1,0.1,0.1,0.1,0.1
			c0.2,0,0.3,0.2,0.5,0.6c0.1,0.1,0.1,0.2,0.1,0.3c0,0.1,0,0.2,0,0.3c-0.1,0.1-0.1,0.2,0,0.3c0.1,0,0.1,0.1,0,0.2
			c0,0.1-0.2,0.1-0.6,0.1c-0.3,0-0.5,0-0.5,0.1c0,0.1-0.1,0.3-0.1,0.5c0,0.2-0.1,0.4-0.2,0.6c-0.1,0.2-0.1,0.3-0.1,0.5
			c0,0.2,0,0.3-0.1,0.3c-0.1,0-0.2,0.1-0.3,0.4c-0.1,0.2-0.2,0.4-0.2,0.6c0,0.1,0,0.1-0.1,0.2c0,0,0,0.1,0,0.3c0,0.1,0,0.2,0,0.2
			c0,0.1,0,0.1-0.1,0.2c-0.1,0.2-0.1,0.3-0.1,0.3s0,0.2-0.1,0.5c-0.1,0.3-0.1,0.6-0.1,1c0,0.2,0,0.5-0.1,0.7
			c-0.1,0.2-0.1,0.5-0.1,0.8l0.1,0.1c0,0.1-0.1,0.2-0.1,0.3c-0.1,0.1-0.2,0.3-0.2,0.5c-0.1,0.2-0.1,0.4,0,0.4c0,0.1,0,0.3-0.2,0.6
			c-0.1,0.2-0.3,0.5-0.4,0.7c-0.1,0.1-0.2,0.3-0.3,0.5c-0.1,0.2-0.2,0.3-0.3,0.4c-0.1,0.1-0.2,0.2-0.2,0.3c-0.2,0.4-0.4,0.8-0.7,1.1
			c0,0,0,0.1-0.1,0.1c0,0,0,0.1,0,0.1c0,0.1-0.3,0.4-0.8,0.7c-0.3,0.3-0.7,0.5-1.1,0.6c0,0,0,0,0,0s0,0,0,0c0,0,0,0,0,0c0,0,0,0,0,0
			c0,0.1-0.1,0.1-0.2,0.1c-0.2,0-0.4,0.1-0.6,0.1c-0.6,0.2-1.2,0.3-1.8,0.3c-0.4,0-0.8,0-1.1,0.1c-0.1,0-0.2,0-0.2,0
			c0-0.1-0.2-0.1-0.4-0.1c-0.3,0-0.6-0.1-0.8-0.3c-0.3-0.2-0.6-0.3-0.9-0.3c-0.3-0.1-0.6-0.1-0.9-0.3C99.4,19,98.8,19,98.2,19
			c-0.5,0-1,0-1.5-0.1c-0.1-0.1-0.3-0.1-0.4-0.1c-0.1,0-0.3,0-0.4-0.1c-0.1-0.1-0.3-0.2-0.4-0.2c-0.1-0.1-0.3-0.2-0.4-0.3
			c0-0.1-0.1-0.2-0.2-0.2c-0.1-0.1-0.1-0.2-0.1-0.3c-0.1-0.2-0.2-0.4-0.3-0.8c-0.2-0.3-0.3-0.7-0.4-1c0-0.2-0.1-0.4-0.2-0.6
			c-0.1-0.1-0.1-0.1-0.2-0.2L93.8,15l-0.1,0.2c-0.1-0.3-0.2-0.6-0.2-0.9c-0.1-0.3-0.1-0.6-0.1-1c0-0.1,0-0.5,0.1-1.1l0.1-0.8
			l-0.2,0.3c-0.2,0.5-0.5,0.4-0.8-0.2c-0.2-0.3-0.2-0.7-0.2-1.1c0,0,0-0.1-0.1-0.1c-0.1,0-0.1,0-0.1-0.1c0,0,0-0.1,0-0.1
			s-0.1-0.1-0.1-0.1c-0.1,0-0.1-0.1,0.1-0.2c0,0,0.1,0,0.2,0c0.3,0,0.6-0.2,0.8-0.4c0.3-0.3,0.7-0.6,1.1-0.8
			c0.1-0.1,0.2-0.2,0.2-0.3c0.2-0.5,0.3-1.1,0.3-1.6c0-0.3,0.1-0.6,0.2-0.9c0.1-0.3,0.1-0.6,0-0.8c0-0.5,0-0.8,0.2-0.8
			c0.1,0,0.2,0,0.2,0.1c0,0.1,0.1,0.2,0.1,0.3c0.1,0.4,0.2,0.9,0.1,1.3c0,0.7,0,1.1,0.1,1.1c0.1,0,0.1,0.1,0,0.4
			c0,0.3,0,0.5,0.1,0.5c0.3-0.1,0.5-0.2,0.8-0.3c0.3-0.1,0.5-0.2,0.8-0.3c0.2-0.1,0.4-0.1,0.6-0.2c0.3-0.1,0.5-0.3,0.6-0.7
			c0.1-0.4,0.2-0.8,0.3-1.2c0-0.1,0.1-0.3,0.1-0.4C99,4.8,99,4.6,99,4.5C99,4.2,99,4,99,3.9L99,3.9z M100.5,8.3
			c-0.2,0-0.4,0-0.5-0.1c0,0-0.1-0.1-0.2-0.1c0,0,0,0-0.1,0c0,0,0,0,0,0c0,0.1,0,0.1,0,0.2c0,0.1,0,0.2,0,0.4c0,0.4-0.1,0.7-0.2,1.1
			c-0.1,0.5-0.1,0.8,0.1,0.8c0.1,0,0.1,0,0.1,0.1c-0.1,0.2,0.1,0.2,0.4-0.1c0.1-0.1,0.3-0.2,0.4-0.3c0.4-0.3,0.7-0.6,1.1-1
			c0.3-0.3,0.5-0.6,0.5-0.6c0-0.1-0.2-0.2-0.6-0.3C101,8.3,100.7,8.3,100.5,8.3L100.5,8.3z M100.2,10.1c0.1-0.2,0.2-0.2,0.2-0.1
			C100.3,10,100.3,10,100.2,10.1L100.2,10.1z M101.1,9.2c0.1-0.2,0.2-0.2,0.2-0.2C101.4,9,101.3,9.1,101.1,9.2c0,0.1,0,0.2-0.1,0.2
			L101.1,9.2L101.1,9.2z M101.5,8.8C101.5,8.8,101.5,8.8,101.5,8.8c0.1-0.1,0.1-0.1,0.2-0.1C101.8,8.7,101.8,8.8,101.5,8.8
			L101.5,8.8z M111.2,5.1c0.2-0.2,0.4-0.3,0.4-0.3C111.8,4.7,111.7,4.9,111.2,5.1c0,0.1,0,0.1-0.1,0.2C111,5.3,111,5.3,111,5.3
			C111,5.2,111.1,5.1,111.2,5.1L111.2,5.1z M111.7,11.4c0.1-0.1,0.1-0.1,0.2-0.1C111.9,11.3,111.9,11.3,111.7,11.4
			c0,0.2,0,0.2-0.1,0.2S111.6,11.5,111.7,11.4L111.7,11.4z"/>
		<path class="st1" d="M125.5,2.1c0.4,0,0.7,0,1.1,0c0.6,0,1.1,0.1,1.7,0.3c0.4,0.2,0.6,0.3,0.6,0.3c0,0.1,0.1,0.1,0.2,0.1
			c0.2,0,0.4,0.1,0.5,0.2c0.4,0.2,0.7,0.4,1,0.7c0.3,0.2,0.5,0.4,0.7,0.6c0.1,0.2,0.3,0.4,0.5,0.5c0.3,0.3,0.5,0.6,0.7,0.9
			c0.1,0.3,0.3,0.5,0.5,0.7c0.3,0.6,0.5,1.2,0.4,1.9c0,0.3,0,0.6-0.1,0.8c-0.1,0.3-0.3,0.6-0.4,0.8c-0.2,0.3-0.4,0.7-0.5,1.1
			c0,0.2,0,0.2,0,0.2s-0.1,0,0,0.1c0,0,0,0.1-0.1,0.2c-0.2,0.4-0.3,0.9-0.3,1.3c0,0.5-0.1,0.9-0.2,1.4c0,0.2-0.1,0.4-0.1,0.6
			c0,0.3-0.1,0.7-0.1,1c-0.1,0.4-0.1,0.7-0.2,1.1c0,0.6-0.2,1.1-0.3,1.7c-0.1,0.4-0.3,0.8-0.6,1.1c-0.3,0.2-0.6,0.3-1,0.4
			c-0.2,0-0.4,0.1-0.6,0.2c-0.3,0.1-0.4,0.1-0.5,0s-0.1-0.1-0.2-0.1c-0.2,0.1-0.4,0.1-0.6,0.1c-0.2,0-0.4,0-0.5,0c0,0-0.1,0-0.1,0
			c0,0-0.1,0-0.1,0c-0.2,0.1-0.4,0.1-0.6,0.1c-0.3,0-0.4,0-0.4-0.1c0-0.1-0.1-0.1-0.1,0s-0.1,0.1-0.1,0.1c-0.7-0.2-1.4-0.2-2.1-0.2
			c-0.5,0-0.9,0.1-1.3,0.2c-0.4,0.1-0.7,0.2-0.9,0.2c-0.2,0-0.3,0.1-0.4,0.2c0,0.1-0.1,0.1-0.3,0.1c-0.2,0-0.2,0-0.3,0.1
			c-0.1,0.1-0.2,0.1-0.4,0.2c-0.2,0-0.3,0.1-0.5,0.2c-0.3,0.2-0.6,0.3-1,0.4l-0.8,0.3l-0.2-0.2c-0.1-0.2-0.3-0.3-0.4-0.5
			c-0.2-0.3-0.3-0.7-0.2-1.1c0-0.4-0.1-0.8-0.2-1.2c-0.1-0.2-0.2-0.3-0.2-0.5c0-0.2-0.1-0.4-0.2-0.6c-0.1-0.2-0.2-0.4-0.2-0.7
			c0-0.1,0-0.2,0-0.3c0-0.1-0.1-0.2-0.1-0.2c-0.1-0.1-0.1-0.1-0.1-0.1c-0.1,0-0.1,0-0.1-0.1c0-0.1,0-0.3,0.1-0.4
			c0.1-0.1,0.2-0.2,0.3-0.3c0.1,0,0.2-0.2,0.2-0.5c0.1-0.3,0.1-0.5,0.3-0.8l0.1-0.3l-0.1,0.4c0,0.3-0.1,0.5-0.2,0.8
			c-0.1,0.2-0.1,0.3,0,0.3c0.1,0,0.4-0.9,0.8-2.7c0.2-1.1,0.3-2.2,0.3-3.4c0-1-0.2-2-0.6-2.9c-0.2-0.4-0.4-0.5-0.7-0.5
			c-0.3,0.1-0.4-0.1-0.2-0.3c0.1-0.1,0.2-0.1,0.3-0.2c0.1,0,0.2,0,0.3,0c0.4,0.1,0.7,0.3,0.9,0.6c0.3,0.3,0.5,0.5,0.6,0.9
			c0.1,0.2,0.2,0.3,0.2,0.3c0.1,0,0.4,0.4,0.6,1.3c0.2,0.7,0.4,1.5,0.4,2.2c0,0.5,0.1,0.7,0.2,0.7c0,0,0.1,0,0.1-0.1
			c0-0.1,0.1-0.1,0.2-0.1c0.2-0.1,0.5-0.1,0.7-0.3c0.2-0.1,0.5-0.2,0.7-0.3c0.4-0.1,0.7-0.2,1.1-0.3c0.3,0,0.6-0.1,0.9-0.3
			c0.1-0.1,0.1-0.3,0.1-0.4V9.8l-0.4,0.1c-0.3,0.1-0.4,0.2-0.4,0.3c0,0.3-0.2,0.4-0.5,0.2c-0.2-0.2-0.4-0.5-0.5-0.8
			c-0.1-0.3-0.2-0.5-0.3-0.5c-0.1,0-0.2,0-0.2-0.1c0-0.1,0.1-0.2,0.2-0.3c0.1-0.3,0.2-0.7,0.2-1c0-0.2,0-0.4,0.1-0.6
			c0-0.1,0.1,0,0.1,0.1c0,0.1,0,0.2,0.1,0.4c0,0.1,0,0.1,0,0.2V7.4c0-0.3,0-0.5-0.2-0.8c-0.1-0.1-0.1-0.2-0.2-0.3
			c0-0.1,0.1-0.1,0.2-0.1c0.2,0,0.4,0.2,0.6,0.5c0.2,0.3,0.3,0.6,0.3,1l0.1,0.2c0.5-0.3,1-0.5,1.5-0.7c0.2-0.1,0.3-0.2,0.3-0.3
			c0-0.3,0.1-0.5,0.2-0.7c0.1-0.2,0.2-0.4,0.2-0.6c0-0.1-0.2-0.1-0.5-0.1c-0.4,0-0.7,0.1-1,0.1c-0.3,0-0.6,0.1-0.9,0.3
			C122.2,6,122.1,6,122.1,6c0-0.1,0.1-0.2,0.3-0.3c0.6-0.3,1.3-0.5,2-0.6c0.3,0,0.7,0,1,0.1c0.3,0.1,0.5,0.4,0.6,0.6
			c0.2,0.3,0.2,0.6,0.2,0.9c0,0.3-0.1,0.6-0.2,0.9c-0.1,0.3-0.2,0.6-0.2,0.9c-0.1,0.3-0.3,0.6-0.6,0.7c-0.3,0.2-0.6,0.3-0.9,0.3
			c-0.2,0-0.3,0-0.3,0.1s0,0.2,0.2,0.5c0.1,0.3,0.3,0.4,0.5,0.4h0.6c0.4,0,0.7-0.1,1.1-0.3c0.5-0.2,0.7-0.3,0.8-0.4
			c0-0.1,0.1-0.1,0.2-0.1s0.1,0,0.2,0c0.2,0,0.3,0,0.3-0.1s0.1-0.1,0.3-0.1c0.2,0,0.3,0,0.5-0.1c0,0,0.1-0.1,0.2-0.1
			c0.1,0,0.1,0,0.2,0c0,0,0.1,0,0.1,0c0,0,0,0,0.1-0.1c0-0.1,0.1-0.1,0.1-0.2l0.1-0.4c0.2-1,0.6-1.9,1.1-2.8
			c0.2-0.3,0.3-0.5,0.4-0.8c0-0.1-0.2-0.3-0.7-0.7c-0.4-0.3-0.9-0.7-1.4-1c-0.3-0.2-0.7-0.4-1.1-0.5c-0.2,0-0.5-0.1-0.7-0.2
			c-0.2-0.1-0.4-0.1-0.6-0.1c-0.8,0-1.6,0-2.3,0.2c-0.8,0.2-1.6,0.5-2.4,0.8c-0.5,0.2-0.8,0.4-0.8,0.4c0,0.1,0,0.1-0.1,0.1
			c-0.1,0-0.2,0.1-0.5,0.3c-0.2,0.1-0.3,0.3-0.4,0.4c0,0.1-0.1,0.1-0.2,0.1c-0.1,0-0.2,0.1-0.3,0c-0.1,0-0.1,0-0.1-0.1
			c0-0.1,0.2-0.3,0.7-0.7c0.3-0.3,0.7-0.6,1.1-0.8c0.2-0.1,0.5-0.2,0.7-0.4c0.2-0.1,0.5-0.2,0.7-0.3c0.4-0.1,0.6-0.2,0.8-0.2
			c0.6-0.2,1.2-0.4,1.8-0.4C125.2,2.2,125.4,2.2,125.5,2.1L125.5,2.1z M117.2,11.5c0-0.3,0.1-0.5,0.1-0.5c0.1,0.2,0.1,0.4,0,0.6
			c0,0.3-0.1,0.6-0.2,0.9c0,0.2-0.1,0.4-0.1,0.6c-0.1,0.5-0.2,0.8-0.3,0.8c0-0.3,0.1-0.7,0.2-1C117.1,12.5,117.2,12,117.2,11.5
			L117.2,11.5z M117,7.9c0-0.2,0-0.2,0.1,0.1c0,0.1,0.1,0.2,0.1,0.3l0.1,0.3l-0.1-0.3C117.1,8.2,117,8,117,7.9L117,7.9z M117.2,9
			l0-0.2c0.1,0,0.1,0.1,0.1,0.3c0,0.1,0,0.2,0,0.2L117.2,9z M117.3,9.7c0-0.1,0-0.1,0.1-0.1c0,0.1,0,0.2,0,0.3l-0.1,0V9.7z
			 M117.3,10.5l0-0.2l0,0.1c0,0.1,0,0.2,0,0.4c0,0.1,0,0.1,0,0C117.3,10.6,117.3,10.6,117.3,10.5L117.3,10.5z M123,11.3
			c0,0-0.1,0-0.2,0c-0.1,0-0.3,0-0.4,0c-0.2,0-0.3,0.1-0.5,0.1c-0.3,0.1-0.7,0.2-1,0.4c-0.2,0.1-0.4,0.2-0.6,0.2c0,0-0.1,0-0.1,0
			c0,0-0.1,0.1-0.1,0.1c0,0-0.1,0.1-0.2,0.1c-0.1,0-0.1,0-0.2,0c-0.1,0-0.2,0-0.2,0c0,0.1,0,0.3,0,0.4c0,0.3,0,0.5,0.1,0.5
			c0.1,0.3,0.1,0.6,0,0.9c0,0.4,0,0.9-0.1,1.3c0,0.2-0.1,0.5-0.1,0.9l-0.1,0.6l0.2-0.1c0.2-0.1,0.3-0.1,0.5-0.2c0.1,0,0.1,0,0.2,0
			c0,0,0,0-0.1,0.1c-0.2,0.1-0.3,0.2-0.5,0.2c-0.2,0-0.3,0.1-0.4,0.2c0,0.1-0.1,0.1,0,0.1c0.1,0,0.2,0,0.2,0c0.2,0,0.3-0.1,0.4-0.2
			c0.1-0.1,0.2-0.1,0.2,0c0,0,0.1,0,0.2-0.1c0.2-0.1,0.4-0.2,0.6-0.2c0.1,0,0.2,0,0.3,0c0,0,0.1,0.1,0.1,0.2c0,0.1,0,0.2,0.1,0.2
			c0.1,0,0.1-0.1,0-0.2c0,0,0-0.1,0-0.1s0-0.1,0-0.1c0.1-0.1,0.2-0.1,0.3-0.1c0.2,0,0.4-0.1,0.5-0.1c0.2,0,0.5-0.1,0.8-0.1
			c0.6,0,0.9-0.1,0.9-0.2c0,0-0.1-0.1-0.4-0.1c-0.2,0-0.4,0-0.5,0c-0.2,0.1-0.4,0.1-0.6,0.1c-0.5,0-0.9,0.1-1.4,0.3
			c-0.1,0.1-0.2,0.1-0.3,0c0,0-0.1-0.1-0.1-0.1c0-0.1,0-0.1,0-0.2c0-0.1,0-0.2,0-0.3c0-0.1-0.1-0.2-0.1-0.3
			c-0.1-0.1-0.1-0.2-0.1-0.3c0-0.1,0-0.2,0-0.3c0.1-0.5,0.2-1.1,0.3-1.6c0.1-0.5,0.2-0.8,0.5-0.8c0.1,0,0.1,0,0.1,0.1
			s0.1,0.1,0.1,0.1c0.1,0.1,0.1,0.2,0.1,0.2c0,0,0,0.1,0,0.1c0.2,0,0.4,0,0.5-0.1c0.2-0.1,0.4-0.2,0.5-0.4c0.1-0.2,0.1-0.3,0.1-0.3
			c-0.1,0-0.2,0.1-0.3,0.2c-0.2,0.2-0.3,0.3-0.3,0.2c0,0,0.1-0.2,0.3-0.4C122.8,12,123,11.6,123,11.3L123,11.3z M120.7,16.7
			C120.6,16.7,120.6,16.7,120.7,16.7C120.6,16.7,120.6,16.7,120.7,16.7C120.6,16.7,120.6,16.7,120.7,16.7
			C120.6,16.6,120.6,16.6,120.7,16.7c-0.1-0.1-0.1-0.1-0.1-0.1s0,0,0,0c0,0,0,0,0,0c0,0,0,0,0,0c0,0,0,0,0,0c0,0,0,0,0,0
			c0,0,0,0,0,0C120.7,16.6,120.7,16.6,120.7,16.7C120.7,16.6,120.7,16.6,120.7,16.7C120.7,16.7,120.7,16.7,120.7,16.7
			C120.7,16.7,120.7,16.7,120.7,16.7C120.7,16.7,120.7,16.7,120.7,16.7L120.7,16.7z M121.2,17.1L121.2,17.1H121
			C121.1,17.1,121.1,17.1,121.2,17.1L121.2,17.1z M121.7,8.4c0-0.1,0-0.1,0-0.2c0-0.1,0-0.1-0.1-0.2c-0.1-0.1-0.1-0.1-0.1-0.1l0,0.8
			l0,0C121.7,8.7,121.7,8.6,121.7,8.4L121.7,8.4z M126,13.4c0.1-0.4,0.1-0.6,0-0.7c-0.2-0.1-0.5-0.2-0.7-0.2c-0.8,0-1.6,0.2-2.3,0.5
			c-0.3,0.1-0.6,0.2-0.8,0.3s-0.4,0.2-0.3,0.4c0,0.2,0,0.5-0.1,0.7c-0.1,0.2-0.1,0.3-0.1,0.5c0.2,0,0.4-0.1,0.5-0.1
			c0.2,0,0.3-0.1,0.5-0.2c0,0,0-0.1,0-0.1c0,0,0-0.1-0.1-0.1c0,0-0.1,0-0.1-0.1c0,0-0.1,0-0.1,0c0,0,0,0-0.1,0c0,0,0,0-0.1,0
			c0-0.1-0.1-0.1-0.1-0.2c-0.1-0.4,0-0.7,0.3-0.8c0.1,0,0.3-0.1,0.5-0.2c0.2-0.1,0.4-0.2,0.6-0.2c0.2-0.1,0.5-0.2,0.7-0.2
			c0.2,0,0.3-0.1,0.3,0c0,0,0.1,0.1,0.3,0.2c0.2,0.1,0.3,0.3,0.4,0.5l0.1,0.3l0.2-0.3c0.1-0.2,0.1-0.4,0.2-0.5
			c0-0.1,0.1-0.2,0.2-0.2c0.1,0,0.1,0.2-0.2,0.7c-0.1,0.3-0.1,0.5,0,0.5C125.8,14,125.9,13.8,126,13.4L126,13.4z M123,15.1
			c0.1-0.1,0.2-0.1,0.1-0.1c-0.4,0.1-0.8,0.2-1.1,0.5c0.2,0,0.3-0.1,0.5-0.2c0.1,0,0.1,0,0.2-0.1c0,0,0.1,0,0.1,0l0.1,0
			C122.8,15.2,122.9,15.2,123,15.1L123,15.1z M123.3,7.9c0,0-0.1,0-0.4,0.1l-0.3,0.2c0,0,0.2,0,0.4-0.1C123.2,8,123.3,7.9,123.3,7.9
			L123.3,7.9z M123.2,11.7c0.1-0.1,0.1-0.1,0.1-0.2c0,0,0,0-0.1,0C123.1,11.6,123.1,11.7,123.2,11.7
			C123.1,11.8,123.1,11.8,123.2,11.7L123.2,11.7z M123.5,16C123.6,16,123.6,16,123.5,16c0.1-0.1,0.1-0.1,0-0.2c-0.1,0-0.1,0-0.1,0
			C123.4,16,123.5,16,123.5,16L123.5,16z M123.7,14.8c0-0.1-0.1-0.1-0.2,0c-0.1,0.1-0.1,0.1,0,0.1S123.7,14.9,123.7,14.8L123.7,14.8
			z M125.9,15.7c-0.4-0.1-0.8-0.1-1.2,0c-0.3,0-0.7,0.1-1,0.3c0.1,0,0.3,0,0.4,0c0.3,0,0.6,0,0.9-0.1c0.4,0,0.6-0.1,0.8-0.1l0.3-0.1
			C126.1,15.7,126,15.7,125.9,15.7L125.9,15.7z M129,10.5c0-0.1,0.1-0.2,0-0.2l-1,0.5c-0.5,0.3-0.9,0.5-1.4,0.6
			c-0.3,0.1-0.6,0.1-0.9-0.1c-0.2-0.1-0.4-0.1-0.4-0.1c0,0.1-0.1,0.1-0.2,0c-0.1-0.1-0.3-0.1-0.4-0.2c-0.2,0-0.3,0-0.3,0
			c-0.1,0.2-0.2,0.4-0.2,0.6c-0.1,0.2-0.1,0.3-0.1,0.5c0,0,0.2,0,0.5-0.1c1.3-0.3,2.2,0,2.6,0.9c0.2,0.4,0.2,0.9,0.1,1.4
			c-0.1,0.6-0.3,0.9-0.6,0.9c0,0-0.1,0-0.1,0c0,0,0,0-0.1,0c0,0,0,0,0,0.1c0,0,0,0,0,0.1c0,0.1,0.1,0.1,0.4,0.1
			c0.1,0,0.2-0.1,0.3-0.1c0.7-0.2,1.1-0.5,1.2-0.7c0.3-1.1,0.5-2.3,0.5-3.5c0-0.3,0.1-0.5,0.1-0.5c0.1,0,0.1,0.3,0,1l-0.1,1.1
			l0.2-1.1c0-0.4,0.1-0.8,0.2-1.2l0-0.1C129.1,10.4,129.1,10.5,129,10.5L129,10.5z M124.3,14.5c0,0-0.1,0-0.2,0.1l0.1,0.1
			C124.3,14.6,124.3,14.6,124.3,14.5L124.3,14.5z M125.1,6.2c0.1-0.3,0.2-0.5,0.1-0.6c-0.1,0-0.1,0-0.1,0.1c0,0.2-0.1,0.4-0.2,0.6
			c-0.1,0.2-0.2,0.4-0.2,0.7c0,0.1,0,0.2-0.1,0.3c0,0.1-0.1,0.1-0.2,0.2c-0.2,0.1-0.2,0.2-0.2,0.2c0.3,0,0.4-0.2,0.5-0.6
			C124.8,6.7,124.9,6.4,125.1,6.2L125.1,6.2z M124.8,16.2c0.1,0,0.2-0.1,0.2-0.1c-0.1,0-0.2,0-0.3,0c-0.1,0-0.2,0.1-0.3,0.1
			C124.5,16.3,124.6,16.3,124.8,16.2L124.8,16.2z M125.7,16.1c0.1,0,0.2-0.1,0.3-0.1l-0.5,0c-0.2,0-0.3,0.1-0.3,0.1
			c0,0.1,0.1,0.1,0.2,0.1C125.5,16.2,125.6,16.1,125.7,16.1L125.7,16.1z M126.8,16l0.2-0.1L126.8,16c-0.1-0.1-0.3-0.1-0.4,0
			l-0.2,0.1h0.2C126.5,16,126.6,16,126.8,16L126.8,16z M127.3,15.8C127.4,15.8,127.4,15.8,127.3,15.8l-0.1-0.1c0,0-0.1,0-0.1,0.1
			C127.2,15.9,127.2,15.9,127.3,15.8L127.3,15.8z M128.5,15.1l0.1-0.2c-0.1,0.1-0.2,0.2-0.3,0.2c-0.1,0.1-0.1,0.2-0.1,0.2
			C128.3,15.3,128.4,15.2,128.5,15.1L128.5,15.1z M128.8,14.2c0-0.1,0-0.2,0-0.2c0,0,0-0.1,0-0.2l0-0.1c-0.1,0-0.1,0.1-0.1,0.3
			c0,0.1,0,0.3-0.1,0.4c-0.1,0.1,0,0.2,0,0.2S128.7,14.4,128.8,14.2L128.8,14.2z M129.6,8.6l0-0.3l-0.1,0.1l-0.1,1.2
			c0,0,0.1-0.2,0.1-0.4C129.5,9,129.5,8.8,129.6,8.6L129.6,8.6z M129.7,7.9c0.1-0.3,0.2-0.5,0.3-0.7c0.2-0.4,0.3-0.6,0.2-0.7
			c0,0-0.1,0.1-0.2,0.2c-0.1,0.2-0.2,0.4-0.3,0.6c-0.1,0.2-0.2,0.4-0.2,0.6c0,0.1,0,0.2,0,0.2c0,0,0.1,0,0.1-0.1
			C129.7,8,129.7,8,129.7,7.9L129.7,7.9z M129.9,10.5c-0.1-0.2-0.1-0.3-0.2-0.2c0,0,0,0.1,0,0.1c0,0.3-0.1,0.5-0.1,0.8
			c-0.1,0.3-0.1,0.5,0,0.8c0.1,0.1,0.1,0.1,0.1,0.1c0-0.1,0-0.1,0-0.2C129.9,11.4,130,10.9,129.9,10.5L129.9,10.5z M130.5,6
			c0.1,0,0.1-0.1,0.2-0.3c0.1-0.2,0.1-0.3,0.1-0.3s-0.1,0.1-0.2,0.3C130.5,5.9,130.5,6,130.5,6L130.5,6z"/>
	</g>
</g>
</svg>
