<?xml version="1.0" encoding="utf-8"?>
<!-- Generator: Adobe Illustrator 26.1.0, SVG Export Plug-In . SVG Version: 6.00 Build 0)  -->
<svg version="1.1" id="圖層_1" xmlns="http://www.w3.org/2000/svg" xmlns:xlink="http://www.w3.org/1999/xlink" x="0px" y="0px"
	 viewBox="0 0 343.4 29.1" style="enable-background:new 0 0 343.4 29.1;" xml:space="preserve">
<style type="text/css">
	.st0{fill:#FFFFFF;}
</style>
<g>
	<path class="st0" d="M0,5.8h5.8v17.5H0V5.8z M29.1,0v5.8H5.8V0H29.1z M29.1,29.1H5.8v-5.8h23.3V29.1z"/>
	<path class="st0" d="M34.9,0h5.8v11.6h-5.8V0z M40.8,17.4v-5.8h17.4v5.8h-5.8v11.7h-5.8V17.4H40.8z M58.2,0H64v11.6h-5.8V0z"/>
	<path class="st0" d="M75.7,11.6h17.4v5.8H75.7v5.8h17.4v5.8H69.9V0h23.3v5.8H75.7V11.6z M99,11.6h-5.8V5.8H99V11.6z M99,23.3h-5.8
		v-5.8H99V23.3z"/>
	<path class="st0" d="M133.9,5.8h-23.3v5.8h17.4v5.8h-17.4v5.8h23.3v5.8h-29.1V0h29.1V5.8z"/>
	<path class="st0" d="M157.2,17.4h-11.6v11.7h-5.8V0H163v5.8h-17.4v5.8H163v11.6h-5.8V17.4z M163,5.8h5.8v5.8H163V5.8z M168.8,29.1
		H163v-5.8h5.8V29.1z"/>
	<path class="st0" d="M174.6,17.4v-5.8h29.1v5.8H174.6z"/>
	<path class="st0" d="M215.4,5.8h5.8v5.8h-5.8v17.5h-5.8V0h5.8V5.8z M221.2,23.2V11.6h5.8v11.6H221.2z M232.9,0h5.8v29.1h-5.8V11.6
		H227V5.8h5.9V0z"/>
	<path class="st0" d="M244.5,0h5.8v11.6h-5.8V0z M250.3,17.4v-5.8h17.4v5.8h-5.8v11.7h-5.8V17.4H250.3z M267.8,0h5.8v11.6h-5.8V0z"
		/>
	<path class="st0" d="M279.4,0h29.1v5.8h-11.6v23.3H291V5.8h-11.6V0z"/>
	<path class="st0" d="M337.6,0h5.8v29.1h-5.8V17.4h-17.4v11.7h-5.8V0h5.8v11.6h17.4V0z"/>
</g>
</svg>
