<svg xmlns="http://www.w3.org/2000/svg" viewBox="0 0 366.41 29.15"><defs><style>.cls-1{fill:#fff;}</style></defs><g id="圖層_2" data-name="圖層 2"><g id="圖層_1-2" data-name="圖層 1"><path class="cls-1" d="M0,6.94H5.56V23.59H0ZM27.75,1.4V6.94H5.56V1.4Zm0,27.75H5.56V23.59H27.75Z"/><path class="cls-1" d="M33.31,1.4h5.56V12.5H33.31ZM38.87,18V12.5H55.51V18H50V29.15H44.41V18ZM55.51,1.4h5.55V12.5H55.51Z"/><path class="cls-1" d="M72.18,12.5H88.82V18H72.18v5.55H88.82v5.56H66.62V1.4h22.2V6.94H72.18Zm22.19,0H88.82V6.94h5.55Zm0,11.09H88.82V18h5.55Z"/><path class="cls-1" d="M127.68,6.94H105.49V12.5h16.64V18H105.49v5.55h22.19v5.56H99.93V1.4h27.75Z"/><path class="cls-1" d="M149.89,18H138.8V29.15h-5.56V1.4h22.2V6.94H138.8V12.5h16.64V23.59h-5.55Zm5.55-11.1H161V12.5h-5.55ZM161,29.15h-5.55V23.59H161Z"/><path class="cls-1" d="M222.06,6.94h5.55V29.15h-5.55V23.59H205.42v5.56h-5.56V6.94h5.56V18h16.64Zm0-5.54V6.94H205.42V1.4Z"/><path class="cls-1" d="M233.17,1.4h27.75V6.94h-11.1V29.15h-5.55V6.94h-11.1Z"/><path class="cls-1" d="M272,23.59h22.19v5.56H266.48V1.4H272Z"/><path class="cls-1" d="M322,6.94h5.55V29.15H322V23.59H305.35v5.56h-5.56V6.94h5.56V18H322Zm0-5.54V6.94H305.35V1.4Z"/><path class="cls-1" d="M333.1,6.94h5.56V12.5H333.1Zm0,22.21V23.59h22.2v5.56ZM360.85,1.4V6.94H338.66V1.4ZM355.3,18H338.66V12.5H355.3Zm5.55,5.55H355.3V18h5.55Z"/></g></g></svg>