<?xml version="1.0" encoding="utf-8"?>
<!-- Generator: Adobe Illustrator 26.1.0, SVG Export Plug-In . SVG Version: 6.00 Build 0)  -->
<svg version="1.1" id="圖層_1" xmlns="http://www.w3.org/2000/svg" xmlns:xlink="http://www.w3.org/1999/xlink" x="0px" y="0px"
	 viewBox="0 0 366.4 29.1" style="enable-background:new 0 0 366.4 29.1;" xml:space="preserve">
<style type="text/css">
	.st0{fill:#FFFFFF;}
</style>
<g id="圖層_2_00000158022634722967951420000013491673927080457357_">
	<g id="圖層_1-2">
		<path class="st0" d="M2.8,6.2h5.6v16.6H2.8V6.2z M30.5,0.7v5.5H8.3V0.7H30.5z M30.5,28.4H8.3v-5.6h22.2V28.4z"/>
		<path class="st0" d="M36.1,0.7h5.6v11.1h-5.6V0.7z M41.6,17.3v-5.5h16.6v5.5h-5.5v11.1h-5.6V17.3H41.6z M58.3,0.7h5.5v11.1h-5.5
			V0.7z"/>
		<path class="st0" d="M75,11.8h16.6v5.5H75v5.5h16.6v5.6H69.4V0.7h22.2v5.5H75V11.8z M97.2,11.8h-5.6V6.2h5.6V11.8z M97.2,22.9
			h-5.6v-5.6h5.6V22.9z"/>
		<path class="st0" d="M130.5,6.2h-22.2v5.6h16.6v5.5h-16.6v5.5h22.2v5.6h-27.7V0.7h27.7V6.2z"/>
		<path class="st0" d="M152.7,17.3h-11.1v11.1H136V0.7h22.2v5.5h-16.6v5.6h16.6v11.1h-5.6V17.3z M158.2,6.2h5.6v5.6h-5.6L158.2,6.2z
			 M163.8,28.4h-5.6v-5.6h5.6V28.4z"/>
		<path class="st0" d="M224.8,6.2h5.6v22.2h-5.6v-5.6h-16.6v5.6h-5.6V6.2h5.6v11.1h16.6V6.2z M224.8,0.7v5.5h-16.6V0.7L224.8,0.7z"
			/>
		<path class="st0" d="M235.9,0.7h27.7v5.5h-11.1v22.2H247V6.2h-11.1L235.9,0.7z"/>
		<path class="st0" d="M274.8,22.9H297v5.6h-27.7V0.7h5.5V22.9z"/>
		<path class="st0" d="M324.8,6.2h5.5v22.2h-5.5v-5.6h-16.6v5.6h-5.6V6.2h5.6v11.1h16.6V6.2z M324.8,0.7v5.5h-16.6V0.7L324.8,0.7z"
			/>
		<path class="st0" d="M335.9,6.2h5.6v5.6h-5.6V6.2z M335.9,28.4v-5.6h22.2v5.6H335.9z M363.6,0.7v5.5h-22.2V0.7H363.6z M358.1,17.3
			h-16.6v-5.5h16.6V17.3z M363.6,22.8h-5.5v-5.5h5.5V22.8z"/>
	</g>
</g>
</svg>
